<?xml version="1.0" encoding="UTF-8"?>
<!DOCTYPE svg  PUBLIC '-//W3C//DTD SVG 1.1//EN'  'http://www.w3.org/Graphics/SVG/1.1/DTD/svg11.dtd'>
<svg clip-rule="evenodd" fill-rule="evenodd" stroke-linecap="round" stroke-miterlimit="5" version="1.1" viewBox="0 0 800 450" xml:space="preserve" xmlns="http://www.w3.org/2000/svg">
    
        <g transform="matrix(.14069 -.089166 .097866 .15442 -454.3 1646.7)">
            <g transform="matrix(.84939 .22492 -.24686 .77388 -3022.9 -11859)">
                <path d="m15801 4655.1 21.5 44.57 36.2-42.46 6.2 45.59 49.9-39.31-9.1 45.48 62.5-35.18-24.3 44.25 73.6-30.19-38.9 41.93 82.8-24.45-52.5 38.57 90.1-18.11-64.9 34.28 95.1-11.34-75.6 29.13 97.7-4.27-84.4 23.27 97.9 2.9-91.2 16.83 95.7 9.99-95.7 9.99 91.2 16.84-97.9 2.89 84.4 23.27-97.7-4.27 75.6 29.13-95.1-11.33 64.9 34.28-90.1-18.12 52.5 38.58-82.8-24.46 38.9 41.93-73.6-30.18 24.3 44.24-62.5-35.18 9.1 45.48-49.9-39.3-6.2 45.58-36.2-42.46-21.5 44.57-21.4-44.57-36.2 42.46-6.2-45.58-49.9 39.3 9.1-45.48-62.5 35.18 24.3-44.24-73.6 30.18 38.9-41.93-82.8 24.46 52.5-38.58-90.1 18.12 64.9-34.28-95.1 11.33 75.6-29.13-97.7 4.27 84.4-23.27-97.9-2.89 91.2-16.84-95.7-9.99 95.7-9.99-91.2-16.83 97.9-2.9-84.4-23.27 97.7 4.27-75.6-29.13 95.1 11.34-64.9-34.28 90.1 18.11-52.5-38.57 82.8 24.45-38.9-41.93 73.6 30.19-24.3-44.25 62.5 35.18-9.1-45.48 49.9 39.31 6.2-45.59 36.2 42.46 21.4-44.57z" fill="#35a300"/>
                <path d="m15810 4650.9-8.9-18.39-23.7 49.37s-40.6-47.7-40.6-47.7l-6.9 50.35-57.5-45.19 10.3 50.63-73.9-41.56 27.5 50.04-89.1-36.54 44.9 48.38-48.6-14.32-8.6 17.33 16.7 12.27s-46.4-9.35-46.4-9.35l-6.6 18.31 18.2 9.59s-42.6-5.08-42.6-5.08l-4.7 18.91 19.5 7.54-37.6-1.65-3.1 19.28 21.5 5.91s-32.7 0.97-32.7 0.97l-1.4 19.47 24.2 4.48-28 2.92v19.54l28 2.92-24.2 4.48 1.4 19.47 32.7 0.97-21.5 5.91 3.1 19.28 37.6-1.65s-19.5 7.54-19.5 7.54l4.7 18.91 42.6-5.08-18.2 9.59 6.6 18.31 46.4-9.35-16.7 12.27 8.6 17.34 48.6-14.33s-44.9 48.39-44.9 48.39l89.1-36.55s-27.5 50.04-27.5 50.04l73.9-41.55-10.3 50.63 57.5-45.2 6.9 50.35 40.6-47.69 23.7 49.36 23.8-49.36s40.6 47.69 40.6 47.69l6.9-50.35 57.4 45.2-10.2-50.63 73.9 41.55-27.5-50.04 89.1 36.55-44.9-48.39 48.6 14.33 8.6-17.34-16.8-12.27 46.5 9.35 6.6-18.31-18.2-9.59s42.6 5.08 42.6 5.08l4.7-18.91-19.5-7.54 37.6 1.65 3.1-19.28-21.5-5.91s32.7-0.97 32.7-0.97l1.4-19.47-24.2-4.48 28-2.92v-19.54l-28-2.92 24.2-4.48-1.4-19.47-32.7-0.97 21.5-5.91-3.1-19.28-37.6 1.65s19.5-7.54 19.5-7.54l-4.7-18.91-42.6 5.08 18.2-9.59-6.6-18.31-46.5 9.35 16.8-12.27-8.6-17.33-48.6 14.32s44.9-48.38 44.9-48.38l-89.1 36.54s27.5-50.04 27.5-50.04l-73.9 41.56 10.2-50.63-57.4 45.19-6.9-50.35-40.6 47.7-14.9-30.98zm-8.9 4.26 21.5 44.57 36.2-42.46 6.2 45.59 49.9-39.31-9.1 45.48 62.5-35.18-24.3 44.25 73.6-30.19-38.9 41.93 82.8-24.45-52.5 38.57 90.1-18.11-64.9 34.28 95.1-11.34-75.6 29.13 97.7-4.27-84.4 23.27 97.9 2.9-91.2 16.83 95.7 9.99-95.7 9.99 91.2 16.84-97.9 2.89 84.4 23.27-97.7-4.27 75.6 29.13-95.1-11.33 64.9 34.28-90.1-18.12 52.5 38.58-82.8-24.46 38.9 41.93-73.6-30.18 24.3 44.24-62.5-35.18 9.1 45.48-49.9-39.3-6.2 45.58-36.2-42.46-21.5 44.57-21.4-44.57-36.2 42.46-6.2-45.58-49.9 39.3 9.1-45.48-62.5 35.18 24.3-44.24-73.6 30.18 38.9-41.93-82.8 24.46 52.5-38.58-90.1 18.12 64.9-34.28-95.1 11.33 75.6-29.13-97.7 4.27 84.4-23.27-97.9-2.89 91.2-16.84-95.7-9.99 95.7-9.99-91.2-16.83 97.9-2.9-84.4-23.27 97.7 4.27-75.6-29.13 95.1 11.34-64.9-34.28 90.1 18.11-52.5-38.57 82.8 24.45-38.9-41.93 73.6 30.19-24.3-44.25 62.5 35.18-9.1-45.48 49.9 39.31 6.2-45.59 36.2 42.46 21.4-44.57z" fill="#fff"/>
            </g>
            <g transform="matrix(.6029 .15772 -.13171 .52841 1096.5 -10096)">
                <text x="14494.8px" y="6129.65px" fill="white" font-family="'SignPainter-HouseScriptSemibold', 'SignPainter'" font-size="295.53px">C<tspan x="14625.4px 14781.2px 14920.9px " y="6129.65px 6129.65px 6129.65px ">ODE</tspan></text>
            </g>
            <g transform="matrix(.45294 .26154 -.27094 .42905 4048 -11245)">
                <text x="14494.8px" y="6129.65px" fill="rgb(53,163,0)" font-family="'SignPainter-HouseScriptSemibold', 'SignPainter'" font-size="295.53px">N<tspan x="14629px 14720.6px " y="6129.65px 6129.65px ">ew</tspan></text>
            </g>
            <g transform="matrix(.45693 .26385 -.2905 .46003 4250.7 -11009)">
                <text x="14494.8px" y="6129.65px" fill="rgb(53,163,0)" font-family="'SignPainter-HouseScriptSemibold', 'SignPainter'" font-size="295.53px">D<tspan x="14631.6px 14751.9px 14809.8px " y="6129.65px 6129.65px 6129.65px ">ail</tspan>y</text>
            </g>
            <g transform="matrix(1.1373 0 0 1.0541 -9513.7 -9904.3)">
                <path d="m16355 5108.8c-8.4 38.32-37.1 63.74-74.5 83.71l-14.4-34.38-53.8 94.59 125 10.85-24.7-25.79c51.2-19.77 109.1-65.65 126.9-98.32-22.4-9.17-84.5-30.66-84.5-30.66z" fill="#35a300"/>
            </g>
        </g>
        <g transform="matrix(.2315 0 0 .2315 -142.24 -342.38)">
            <g transform="translate(-6447.2 -9965.8)">
                <path d="m8163.9 12644-42.37 345.1h38.24l23.94-25.8 70.93-319.1-90.74-0.2z" fill="none" stroke="#35a300" stroke-width="12.5px"/>
            </g>
            <g transform="matrix(-1 0 0 1 10454 -9968.8)">
                <path d="m8163.9 12644-39.29 314.2 9.1 31.3 42.85-0.4 78.08-344.9-90.74-0.2z" fill="none" stroke="#35a300" stroke-width="12.5px"/>
            </g>
            <g transform="translate(-6240.9 -10203)">
                <path d="m8163.9 12731-42.37 345.1h38.07l20.67-19.5 74.37-325.4-90.74-0.2z" fill="#35a300"/>
            </g>
            <g transform="matrix(-1 0 0 1 10561 -10210)">
                <path d="m8163.9 12731-37.2 320.5 14 24.6h35.86l78.08-344.9-90.74-0.2z" fill="#35a300"/>
            </g>
            <g transform="translate(-6515.8 -9912)">
                <path d="m8258.4 12517c-17.03 8.9-27.67 26.6-27.58 45.8 0.08 17.2 0.16 35.2 0.16 35.2s493.41 0.5 568.82 0.5c6.17 0 12.12-2.3 16.61-6.6 24.11-22.7 102.32-96.5 102.32-96.5s0.39-23 0.72-42.9c0.13-7.5-2.75-14.7-7.98-20s-12.38-8.3-19.84-8.3h-446.83c-5.94 0-11.79 1.4-17.05 4.2-27.95 14.6-122 63.8-169.35 88.6z" fill="#fff" stroke="#35a300" stroke-width="12.5px"/>
            </g>
            <g transform="translate(-6837.9 -9754.4)">
                <path d="m8604.1 12386h472.26c17.96 0 35.34-6.4 49-18.1 27.86-23.8 73.36-62.7 73.36-62.7" fill="none" stroke="#35a300" stroke-width="6.25px"/>
            </g>
        </g>
        <g transform="matrix(.22541 -.052763 .052763 .22541 -1650.1 1662.6)">
            <g transform="matrix(1.1986 -.2871 .40519 1.6916 -9489.8 -9170.5)">
                <path d="m13988 5629.3c-1.1-0.38-2.3-0.34-3.2 0.11-1 0.45-1.5 1.24-1.4 2.04v0.01c0.1 0.86 0.9 1.59 2 1.9 1.2 0.32 2.5 0.15 3.4-0.43 1.7-1.12 3.2-2.11 3.2-2.11s-1.9-0.73-4-1.52z" fill="#35a300"/>
            </g>
            <g transform="translate(-6840.2 -9675)">
                <path d="m16401 6013.9 5.1-3.79 3.5-13.93" fill="none" stroke="#35a300" stroke-width="4.17px"/>
            </g>
            <g transform="matrix(1 0 0 -1 -6839.8 2353.1)">
                <path d="m16401 6013.9 5.1-3.79 3.5-13.93" fill="none" stroke="#35a300" stroke-width="4.17px"/>
            </g>
            <g transform="translate(-4439.1 -9291.6)">
                <path d="m14034 5582.9c-22.4-8.88-33.6-9.16-51.1-0.27-5.9 3.01-12.9 10.54-20 15.59-8.6 6.09-16.9 11.49-22 14.74-0.8 0.45-1.1 1.3-0.9 2.12s0.9 1.4 1.8 1.45c4.3 0.25 10.1 0.59 14.8 0.86 4.6 0.26 8 4.11 7.8 8.63-0.8 15.29 3 27.23 12 35.42 0 0-4.7 11.19-8.5 20.09-0.8 1.84-0.4 3.98 1 5.42s3.5 1.92 5.4 1.21c9.2-3.45 20.7-7.81 20.7-7.81l21.8 3.15s-1.4 2.42-2.9 4.88c-2 3.21-2.1 7.18-0.5 10.55 1.7 3.4 3.9 7.92 5.9 12.05 3.2 6.67 10 10.92 17.4 10.91h8.5c7.4-2.12 0.3-11.7-0.9-22.12 10.2-12.04 18.3-10.37 26.1-5.98l18.6 6.02 7.5-11.18-4 6.02-2.6 25.79-10.6 7.67s-24.1 6.64-31.4 8.67c-1.4 0.38-2.7 1.08-3.8 2.04-0.6 0.6-1.5 1.34-2.3 2.12-3.8 3.42-4.2 9.27-0.8 13.11 0.3 0.36 0.6 0.71 0.9 1.05 2.2 2.5 5.6 3.64 8.9 2.97 7.4-1.51 20.1-4.09 20.1-4.09l26.7-2.3 10.9-16.06 11.5-5.16c1.5-0.32 4 4.24 4 4.24l1.5 18.06 6.5 4.59-8.3 6.01s-20 10.23-25.9 13.24c-1 0.53-1.9 1.33-2.6 2.32-1.2 1.88-3.4 5.2-5.4 8.21-1 1.61-1.4 3.61-0.9 5.48 0.5 1.88 1.8 3.46 3.5 4.35 2.9 1.53 6.3 3.27 8.9 4.64 2.8 1.4 6.1 0.84 8.2-1.37 3.9-4.22 9.9-10.5 9.9-10.5l34.2-10.33 21.1-17.13-6.3-18.23 16.7 5.54s9.3-12.85 0 0l-20.6 41.97c-8.5 27.45 0.9 48.92 11.6 62.06 2 2.49 5 4.03 8.2 4.24 3.2 0.22 6.4-0.91 8.7-3.11v0.05c3.2-3 3.8-7.86 1.4-11.51-4.5-6.76-11-16.55-11-16.55-7.7-29.76 21.6-66.76 55.2-121.01 19.1-55.71-9.9-90.54-63.6-114.64-6.9-3.1-14.2-5.17-21.6-6.14-16.7-2.2-49.4-6.45-62.7-8.19-3.7-0.48-7.4 0.08-10.8 1.6-9.1 4.06-29.3 11.17-45.9 4.55z" fill="none" stroke="#35a300" stroke-width="12.5px"/>
            </g>
            <g transform="translate(-4445.7 -9302.1)">
                <path d="m14078 5585.9-15.8 10.88c-4.6 3.16-8.3 7.35-10.8 12.14s-3.8 10.18-3.8 15.75l0.3 4.79c1 7.85 4.9 14.74 10.4 19.64 5.6 4.89 12.9 7.83 20.8 7.81l-0.3-0.01 14.2 0.05c4.4-0.14 8.5-1.74 11.6-4.59 3-2.8 5.1-6.58 5.5-10.92v-0.01c0.4-4.23-0.7-8.32-3.1-11.47-2.4-3.05-5.7-5.43-9.7-6.15l-10.9-1.84c-1.7-0.42-3.4 0.62-3.9 2.34-0.4 1.71 0.6 3.45 2.4 3.88l10.4 3.48c1.8 0.58 3.1 1.94 4 3.47 0.8 1.41 1 3.13 0.6 4.85-0.3 1.67-1.3 2.99-2.6 3.98-1.1 0.94-2.7 1.36-4.3 1.29 0 0-13.7-0.58-13.7-0.58h-0.1c-4.8-0.06-9.2-1.93-12.6-4.93-3.3-2.99-5.6-7.14-6.1-11.88l-0.3-3.31c0-3.46 0.9-6.81 2.4-9.8 1.6-3 3.9-5.63 6.8-7.62l15.7-10.96c2.8-1.97 3.6-5.86 1.6-8.7s-5.9-3.55-8.7-1.58z" fill="#35a300"/>
            </g>
            <g transform="matrix(.97368 .22792 -.22792 .97368 -3874.8 -13039)">
                <path d="m15255 6117.1c0.6-1.95 1.6-3.79 2.9-5.6 0.9-1.34 2-2.61 3.1-3.96 0.2-0.34 0.5-0.72 0.7-1.09 2-2.95 3.7-5.86 6.5-8.69 1.4-0.83 1.8-2.62 1-4.01-0.8-1.38-2.6-1.83-4-1-4.3 1.2-7.8 2.64-11.3 4.72-0.9 0.56-1.7 1.2-2.5 1.91-4.2 3.95-6.8 8.98-8.4 13.94-1 3.29 0.8 6.8 4.1 7.84 3.3 1.05 6.8-0.78 7.9-4.06z" fill="#35a300"/>
            </g>
            <g transform="matrix(2.0316 -.47539 .38034 1.6254 -23621 -6254.3)">
                <path d="m15251 6119.7c0.4-5.07 1.6-11.57 3.8-17.4 0.8-2.33 1.8-4.56 3-6.55 1-1.81 2.1-3.45 3.4-4.76 2-1.96 4.2-3.37 7-3.51 0.8 0.05 1.4-0.69 1.5-1.66 0-0.96-0.6-1.78-1.3-1.83-3.6-0.65-6.8 0.37-9.7 2.43-1.9 1.36-3.5 3.24-5 5.42-1.5 2.24-2.7 4.85-3.8 7.6-2.5 6.55-3.8 14-4.1 19.75-0.1 1.81 0.9 3.39 2.4 3.53 1.4 0.15 2.7-1.21 2.8-3.02z" fill="#35a300"/>
            </g>
            <g transform="matrix(-1.3362 -1.6025 -1.2821 1.069 37954 14367)">
                <path d="m15246 6119.2c0.4-7.83 1.4-16.78 5.3-26.21 1.5-3.7 3.5-7.48 6.1-11.22 2.2-3.1 4.7-6.11 7.8-9.18 0.5-0.67 1.4-0.65 1.9 0.05 0.6 0.7 0.5 1.81 0 2.47-2.5 3.45-4.4 6.84-6.1 10.07-2 3.75-3.6 7.32-4.9 10.76-3.3 8.72-4.4 16.67-4.9 23.77-0.1 1.81-1.4 3.17-2.8 3.02-1.5-0.14-2.5-1.72-2.4-3.53z" fill="#35a300"/>
            </g>
            <g transform="matrix(1.7532 0 0 1.7532 -19187 -14199)">
                <circle cx="16388" cy="6001.6" r="2.364" fill="#35a300"/>
            </g>
            <g transform="matrix(1.7532 0 0 1.7532 -19177 -14164)">
                <circle cx="16388" cy="6001.6" r="2.364" fill="#35a300"/>
            </g>
        </g>
        <g transform="matrix(.2315 0 0 .2315 -1272.5 1118.6)">
            <g transform="translate(-6844.5 -9676.7)">
                <path d="m13650 5828.6v89.41s-24.8 16.78-43.5 29.47c-2.8 1.88-4 5.34-3 8.54s3.9 5.39 7.3 5.39h92.7c5.8 0 11.5-2.09 16-5.89 10.8-9.22 32.1-27.36 47.6-40.53 2.8-2.41 3.9-6.32 2.6-9.8s-4.6-5.79-8.3-5.79h-75.9v-89.3" fill="#35a300"/>
            </g>
            <g transform="matrix(1.229 0 0 1.229 -9792.5 -11052)">
                <path d="m13712 5477.1c-0.1-6.5-4.6-12.12-10.9-13.65-49.2-11.92-251.5-60.86-267.8-64.8-0.6-0.17-1.4-0.25-2.1-0.24-4.8 0.05-24.6 0.27-38.6 0.43-7.9 0.08-14.3 6.53-14.4 14.47-0.4 71.13-2.1 386.34-2.6 468.51 0 5.2 2 10.19 5.7 13.87s8.6 5.75 13.8 5.74c13.5-0.02 30.3-0.05 38.3-0.06 3.1-0.01 6.1-0.62 8.9-1.8 30.8-12.85 218.6-91.28 264-110.25 6-2.49 9.9-8.36 9.8-14.83-0.7-48.6-3.4-248.09-4.1-297.39z" fill="#fff" stroke="#35a300" stroke-width="10.17px"/>
            </g>
            <g transform="matrix(1.2156 0 0 1.2125 -9741.5 -10876)">
                <path d="m13558 5358.7c-3.2-0.72-6.6 0.07-9.2 2.15-2.6 2.07-4.1 5.2-4.1 8.51v418.62c0 3.58 1.8 6.94 4.7 8.98 3 2.04 6.7 2.51 10.1 1.25 48.9-18.33 205.1-76.87 240.4-90.12 4.3-1.61 7.2-5.75 7.1-10.36-0.5-40.84-2.6-232.56-3.1-275.77-0.1-5.08-3.6-9.45-8.5-10.55-37.8-8.38-191.2-42.44-237.4-52.71z" fill="#35a300"/>
            </g>
            <g transform="matrix(1.229 0 0 1.229 -9919.8 -10956)">
                <circle cx="13508" cy="5726.4" r="9.17" fill="#fff" stroke="#35a300" stroke-width="5.09px"/>
            </g>
            <g transform="matrix(1.229 0 0 1.229 -9919.8 -10915)">
                <circle cx="13508" cy="5726.4" r="9.17" fill="#fff" stroke="#35a300" stroke-width="5.09px"/>
            </g>
        </g>
        <g transform="matrix(.2315 0 0 .2315 -2864.4 -1119.6)">
            <path d="m13970 5858.8c-5-0.8-10.1 0.34-14.2 3.19-23.4 15.89-102.3 69.69-120.5 82.11-2.3 1.59-3.6 4.3-3.5 7.13 0.2 1.96 0.3 4.32 0.4 6.53 0.3 4.24 3.8 7.54 8 7.54h145.2c5.5 0 10.9-2.01 15.2-5.66 16.6-14.3 60.4-52.12 81.7-70.49 2.2-1.87 3.1-4.82 2.3-7.57s-3.1-4.8-5.9-5.25c-28.4-4.58-87.5-14.11-108.7-17.53z" fill="#fff" stroke="#35a300" stroke-width="12.5px"/>
        </g>
        <g transform="matrix(.23065 .0039554 .0039554 .21316 -3223 -1018.7)">
            <path d="m15036 5841.7-65 301.25" fill="none" stroke="#35a300" stroke-width="6.4px"/>
        </g>
        <g transform="matrix(.21737 -.077234 .078505 .19822 -3343.8 288.52)">
            <path d="m15036 5841.7-65 301.25" fill="none" stroke="#35a300" stroke-width="6.4px"/>
        </g>
        <g transform="matrix(.26981 .02809 -.13077 .088896 -2561.3 393.43)">
            <g transform="translate(-6844.5 -9676.7)">
                <path d="m15564 5354.2c0-2.35-0.7-4.27-1.6-4.27h-18.5c-0.9 0-1.6 1.92-1.6 4.27v13.17c0 2.36 0.7 4.27 1.6 4.27h18.5c0.9 0 1.6-1.91 1.6-4.27v-13.17z" fill="#35a300"/>
            </g>
            <g transform="translate(-6815.9 -9676.7)">
                <path d="m15564 5354.2c0-2.35-0.7-4.27-1.6-4.27h-18.5c-0.9 0-1.6 1.92-1.6 4.27v13.17c0 2.36 0.7 4.27 1.6 4.27h18.5c0.9 0 1.6-1.91 1.6-4.27v-13.17z" fill="#35a300"/>
            </g>
            <g transform="translate(-6787.7 -9676.7)">
                <path d="m15564 5354.2c0-2.35-0.7-4.27-1.6-4.27h-18.5c-0.9 0-1.6 1.92-1.6 4.27v13.17c0 2.36 0.7 4.27 1.6 4.27h18.5c0.9 0 1.6-1.91 1.6-4.27v-13.17z" fill="#35a300"/>
            </g>
            <g transform="translate(-6844.5 -9704.2)">
                <path d="m15564 5354.2c0-2.35-0.7-4.27-1.6-4.27h-18.5c-0.9 0-1.6 1.92-1.6 4.27v13.17c0 2.36 0.7 4.27 1.6 4.27h18.5c0.9 0 1.6-1.91 1.6-4.27v-13.17z" fill="#35a300"/>
            </g>
            <g transform="translate(-6815.9 -9704.2)">
                <path d="m15564 5354.2c0-2.35-0.7-4.27-1.6-4.27h-18.5c-0.9 0-1.6 1.92-1.6 4.27v13.17c0 2.36 0.7 4.27 1.6 4.27h18.5c0.9 0 1.6-1.91 1.6-4.27v-13.17z" fill="#35a300"/>
            </g>
            <g transform="translate(-6787.7 -9704.2)">
                <path d="m15564 5354.2c0-2.35-0.7-4.27-1.6-4.27h-18.5c-0.9 0-1.6 1.92-1.6 4.27v13.17c0 2.36 0.7 4.27 1.6 4.27h18.5c0.9 0 1.6-1.91 1.6-4.27v-13.17z" fill="#35a300"/>
            </g>
            <g transform="translate(-6844.5 -9732.6)">
                <path d="m15564 5354.2c0-2.35-0.7-4.27-1.6-4.27h-18.5c-0.9 0-1.6 1.92-1.6 4.27v13.17c0 2.36 0.7 4.27 1.6 4.27h18.5c0.9 0 1.6-1.91 1.6-4.27v-13.17z" fill="#35a300"/>
            </g>
            <g transform="translate(-6815.9 -9732.6)">
                <path d="m15564 5354.2c0-2.35-0.7-4.27-1.6-4.27h-18.5c-0.9 0-1.6 1.92-1.6 4.27v13.17c0 2.36 0.7 4.27 1.6 4.27h18.5c0.9 0 1.6-1.91 1.6-4.27v-13.17z" fill="#35a300"/>
            </g>
            <g transform="translate(-6787.7 -9732.6)">
                <path d="m15564 5354.2c0-2.35-0.7-4.27-1.6-4.27h-18.5c-0.9 0-1.6 1.92-1.6 4.27v13.17c0 2.36 0.7 4.27 1.6 4.27h18.5c0.9 0 1.6-1.91 1.6-4.27v-13.17z" fill="#35a300"/>
            </g>
            <g transform="translate(-6844.5 -9762.2)">
                <path d="m15564 5354.2c0-2.35-0.7-4.27-1.6-4.27h-18.5c-0.9 0-1.6 1.92-1.6 4.27v13.17c0 2.36 0.7 4.27 1.6 4.27h18.5c0.9 0 1.6-1.91 1.6-4.27v-13.17z" fill="#35a300"/>
            </g>
            <g transform="translate(-6815.9 -9762.2)">
                <path d="m15564 5354.2c0-2.35-0.7-4.27-1.6-4.27h-18.5c-0.9 0-1.6 1.92-1.6 4.27v13.17c0 2.36 0.7 4.27 1.6 4.27h18.5c0.9 0 1.6-1.91 1.6-4.27v-13.17z" fill="#35a300"/>
            </g>
            <g transform="translate(-6787.7 -9762.2)">
                <path d="m15564 5354.2c0-2.35-0.7-4.27-1.6-4.27h-18.5c-0.9 0-1.6 1.92-1.6 4.27v13.17c0 2.36 0.7 4.27 1.6 4.27h18.5c0.9 0 1.6-1.91 1.6-4.27v-13.17z" fill="#35a300"/>
            </g>
            <g transform="translate(-6844.5 -9791.7)">
                <path d="m15564 5354.2c0-2.35-0.7-4.27-1.6-4.27h-18.5c-0.9 0-1.6 1.92-1.6 4.27v13.17c0 2.36 0.7 4.27 1.6 4.27h18.5c0.9 0 1.6-1.91 1.6-4.27v-13.17z" fill="#35a300"/>
            </g>
            <g transform="translate(-6815.9 -9791.7)">
                <path d="m15564 5354.2c0-2.35-0.7-4.27-1.6-4.27h-18.5c-0.9 0-1.6 1.92-1.6 4.27v13.17c0 2.36 0.7 4.27 1.6 4.27h18.5c0.9 0 1.6-1.91 1.6-4.27v-13.17z" fill="#35a300"/>
            </g>
            <g transform="translate(-6787.7 -9791.7)">
                <path d="m15564 5354.2c0-2.35-0.7-4.27-1.6-4.27h-18.5c-0.9 0-1.6 1.92-1.6 4.27v13.17c0 2.36 0.7 4.27 1.6 4.27h18.5c0.9 0 1.6-1.91 1.6-4.27v-13.17z" fill="#35a300"/>
            </g>
            <g transform="translate(-6844.5 -9820)">
                <path d="m15564 5354.2c0-2.35-0.7-4.27-1.6-4.27h-18.5c-0.9 0-1.6 1.92-1.6 4.27v13.17c0 2.36 0.7 4.27 1.6 4.27h18.5c0.9 0 1.6-1.91 1.6-4.27v-13.17z" fill="#35a300"/>
            </g>
            <g transform="translate(-6815.9 -9820)">
                <path d="m15564 5354.2c0-2.35-0.7-4.27-1.6-4.27h-18.5c-0.9 0-1.6 1.92-1.6 4.27v13.17c0 2.36 0.7 4.27 1.6 4.27h18.5c0.9 0 1.6-1.91 1.6-4.27v-13.17z" fill="#35a300"/>
            </g>
            <g transform="translate(-6787.7 -9820)">
                <path d="m15564 5354.2c0-2.35-0.7-4.27-1.6-4.27h-18.5c-0.9 0-1.6 1.92-1.6 4.27v13.17c0 2.36 0.7 4.27 1.6 4.27h18.5c0.9 0 1.6-1.91 1.6-4.27v-13.17z" fill="#35a300"/>
            </g>
        </g>
        <g transform="matrix(.2315 0 0 .2315 -1622.1 1179.2)">
            
                <g transform="translate(-6844.5 -9676.7)">
                    <path d="m15112 5156.9h75.8" fill="none" stroke="#fff" stroke-width="6.25px"/>
                </g>
                <g transform="matrix(.73553 0 0 1 -2847.8 -9660.9)">
                    <path d="m15112 5156.9h75.8" fill="none" stroke="#fff" stroke-width="7.12px"/>
                </g>
                <g transform="matrix(1.3211 0 0 1 -11697 -9645.4)">
                    <path d="m15112 5156.9h75.8" fill="none" stroke="#fff" stroke-width="5.33px"/>
                </g>
                <g transform="matrix(1.0642 0 0 1 -7815.1 -9629.1)">
                    <path d="m15112 5156.9h75.8" fill="none" stroke="#fff" stroke-width="6.05px"/>
                </g>
            
        </g>
    
    <g transform="matrix(.20833 0 0 .20833 -1425.2 1071.2)">
        <g transform="matrix(.84657 .53228 -.53228 .84657 8036.7 -19569)">
            <path d="m9173 13003-25.79-4.5s-60.74 44.7-67.04 63c-6.3 18.4 29.24 21.2 85.4 9.2 56.17-12.1 78.52-32.2 78.52-32.2s5.14-29.8-15.49-30.9c-20.64-1.1-40.12 17.8-55.6-4.6z" fill="#fff" stroke="#35a300" stroke-width="12.5px"/>
        </g>
        <g transform="matrix(.84657 .53228 -.53228 .84657 8042.4 -19590)">
            <path d="m9179.7 12993 3.8 30.5c6.48 9.5 20.94 10.2 41.62 4l-5.51-31.4-39.91-3.1z" fill="none" stroke="#35a300" stroke-width="12.5px"/>
        </g>
        <g transform="matrix(-.8116 0 0 .8116 16977 -14223)">
            <circle cx="9545.4" cy="13046" r="29.091" fill="#35a300"/>
        </g>
        <g transform="matrix(.8116 0 0 .8116 1729.2 -14222)">
            <circle cx="9545.4" cy="13046" r="29.091" fill="#35a300"/>
        </g>
        <g transform="translate(-55.94 -16589)">
            <path d="m9271.2 13006 112.45-54.1 49-3.5 117.81 59.7-32.67 12.5-84.44-28.5h-48.57l-88.12 21.1-25.46-7.2z" fill="#fff" stroke="#35a300" stroke-width="12.5px"/>
        </g>
        <g transform="matrix(.73014 0 0 .73014 2483.2 -13063)">
            <path d="m9371.8 12872v55.6c23.32 15.1 46.64 15.4 69.95 0v-63.1l-69.95 7.5z" fill="#fff" stroke="#35a300" stroke-width="17.12px"/>
        </g>
        <g transform="translate(-55.94 -16589)">
            <path d="m9356.8 12724s29.81-303.7 43.55-443.6c3.94-40.3 35.65-72.2 75.86-76.4 0 0 62.86 6.6 105.89 11.1 25.79 2.7 50.4 12.2 71.27 27.6 19.79 14.6 30.74 38.3 29.03 62.9-5.99 86.1-20.38 293.2-28.87 415.3-3.91 56.3-43.97 103.4-98.85 116.4l-197.88-113.3z" fill="none" stroke="#35a300" stroke-width="12.5px"/>
        </g>
        <g transform="matrix(1.0786 0 0 1.0724 -779.79 -17517)">
            <path d="m9239.5 12855c29.01 7.1 83.69 14.3 140.43 11.4s172.51-35.6 172.51-35.6 7.42-80.2-29.26-87.7c-36.69-7.4-197.73-29.3-197.73-29.3l-216.65 21.1-38.72 11.8s1.59 22.1 2.89 40.2c0.99 13.8 10.54 25.5 23.83 29.2 39.01 10.9 118.09 32.8 142.7 38.9z" fill="#fff" stroke="#35a300" stroke-width="11.62px"/>
        </g>
        <g transform="translate(-55.94 -16589)">
            <path d="m9358.6 12805c24.93-0.4 106.17-18.5 133.68-28.4" fill="none" stroke="#35a300" stroke-width="6.25px"/>
        </g>
        <g transform="translate(-1425.2 -17009)">
            <path d="m10560 13067c-28.7 14.9-140.7 12.9-198 71.3-4.5 4.6-43.2 176.9-43.2 176.9l38.4 16.7s31.7-77.7 64.4-146.2c7.5-15.7 135.8-43.9 135.8-43.9" fill="#fff" stroke="#35a300" stroke-width="12.5px"/>
        </g>
        <g transform="translate(-1425.2 -17009)">
            <path d="m10846 13074s13.7 36.1-21.2 91.1c-34.9 55.1-224.4 53.4-224.4 53.4-40.8 4.8-12.8 157.8-6.2 182.7 6.7 24.8-42.6 23.1-52.3 7.6-9.8-15.4-56.3-167.7-56.3-167.7s-35.1-44 76.8-114.8" fill="#fff" stroke="#35a300" stroke-width="12.5px"/>
        </g>
        <g transform="matrix(.97244 .23317 -.23317 .97244 1727.1 -19164)">
            <path d="m10691 12750c-20.8 10.4-55.6 55-71.6 59.7-43.5 13 21.8 75.6 38.3 67.1 0 0 53.9-33.1 55.6-58" fill="#fff" stroke="#35a300" stroke-width="12.5px"/>
        </g>
        <g transform="matrix(.45546 -.25384 .48681 .87351 -2023.8 -12718)">
            <ellipse cx="10630" cy="12850" rx="10.385" ry="26.238" fill="#35a300"/>
        </g>
        <g transform="translate(-2108.1 -17059)">
            <path d="m11376 12775c-16.4-12.2-35.1-16.1-54-15-32.7 1.7-62.8 18-82.2 44.3-19.3 26.4-25.8 60.1-17.6 91.7 16 63 31.7 152.7 16 224.1 142.5-0.6 197.9 110.4 298.9 20.3-13.1-201.4-92.3-314.4-161.1-365.4z" fill="#fff" stroke="#35a300" stroke-width="12.5px"/>
        </g>
        <g transform="translate(-6826.4 -9672.8)">
            <path d="m16126 5786.6c-10.5 23.5 6.7 51.01 20.4 55.02" fill="none" stroke="#35a300" stroke-width="6.25px"/>
        </g>
        <g transform="translate(-6813.3 -9676)">
            <path d="m16126 5786.6c-10.5 23.5 6.7 51.01 20.4 55.02" fill="none" stroke="#35a300" stroke-width="6.25px"/>
        </g>
        <g transform="matrix(4.8 0 0 4.8 7268.6 -5187.9)">
            <path d="m392.42 191.17s-0.161 1.226-0.323 2.459c-0.185 1.412 0.752 2.728 2.147 3.016 1.709 0.352 3.973 0.819 5.687 1.172 1.533 0.316 3.113-0.258 4.086-1.485 0.692-0.872 1.507-1.899 2.222-2.801 1.083-1.365 1.184-3.266 0.253-4.739-0.935-1.478-1.945-3.075-1.945-3.075" fill="none" stroke="#35a300" stroke-dasharray="1.5,3,0,0" stroke-linejoin="round" stroke-miterlimit="1.5" stroke-width="1px"/>
        </g>
        <g transform="translate(-2345.3 -16958)">
            <path d="m11476 12536c28.1-14.3 49.8-16.6 61-30.9 11.2-14.4 12.3-78.6 12.3-78.6l21.5-32.6s-22.9-31-76.5-35c14-12.1 26.2-24.2 26.2-24.2-40.1-4.3-100.8 20.4-119.7 31.1 4.5-18.7 8.5-25.5 8.5-25.5-27.1 3.5-53.9 38.9-53.9 38.9-26.8-24.7-9.4-75 47.7-102.9 48.5-23.8 143.8-12.5 186.8 48.2 10.9-13.8 28.8-24.8 28.8-24.8 3.5 15.2 0.1 33.7 0.1 33.7 9.2-6.3 21.4-5.2 21.4-5.2l-10.9 38.7c17.8 1.7 24 13.6 24 13.6l-25.7 11.3c4.4 11.6 28.3 12 25.4 83.3-2 48.6-27.9 70.8-59.3 109 1-32.9 3.3-82.7 3.3-82.7 16.3 7.4 49.7-48.2 16.5-67.7-16.9-8-27.5 11.9-27.5 11.9" fill="none" stroke="#35a300" stroke-width="12.5px"/>
        </g>
        <g transform="translate(-2345.3 -16958)">
            <path d="m11456 12408c22.7 0 57 5.1 64.2 20.9" fill="none" stroke="#35a300" stroke-width="12.5px"/>
        </g>
        <g transform="matrix(-.40443 .054799 .14212 1.0489 11910 -18188)">
            <path d="m11456 12408c22.7 0 57 5.1 64.2 20.9" fill="none" stroke="#35a300" stroke-width="15.58px"/>
        </g>
        <g transform="translate(-2345.3 -16958)">
            <path d="m11389 12559 11.7 24.1 16.9-10.4 23 13.2 17.3-20.4" fill="none" stroke="#35a300" stroke-width="12.5px"/>
        </g>
        <g transform="matrix(1.0375 0 0 1.0816 -2775.9 -17979)">
            <path d="m11402 12515c-21.2 10.6-36.9 18.1-40.1 50.5 19.8-12.9 45.6-7.2 56.2-28.1 13.8 20.9 39.8 15.1 67.1 30.3 6.8-36.1-43.3-49.4-43.3-49.4" fill="none" stroke="#35a300" stroke-width="11.79px"/>
        </g>
        <g transform="matrix(1.0506 0 0 1 -2866.3 -16879)">
            <path d="m11314 12487c2.6 30.1-12.2 71.6 48 70.7 60.2-0.8 168.1 7.2 168.1-59.8" fill="none" stroke="#35a300" stroke-miterlimit="1.5" stroke-width="12.19px"/>
        </g>
        <g transform="matrix(1.817 0 0 1.3406 -11712 -21185)">
            <ellipse cx="11471" cy="12436" rx="7.018" ry="9.46" fill="#35a300"/>
        </g>
        <g transform="matrix(1.2655 0 0 1.0908 -5476.1 -18079)">
            <ellipse cx="11471" cy="12436" rx="7.018" ry="9.46" fill="#35a300"/>
        </g>
        <g transform="matrix(1.1484 0 0 1.0723 -4031.3 -17864)">
            <path d="m11400 12423c7 14.6 12.3 34.4-2.3 43.7-19.2 12.2-42.1 53.7 9.5 49.1" fill="none" stroke="#35a300" stroke-miterlimit="1.5" stroke-width="11.25px"/>
        </g>
        <g transform="translate(-2173.6 -17094)">
            <path d="m11192 12677c-9-77.6 6-95.1-8-164.7" fill="none" stroke="#35a300" stroke-width="12.5px"/>
        </g>
        <g transform="translate(-2173.6 -17094)">
            <path d="m11316 12776 18.9 57c22.2 13.2 37.6 10.4 44.3-12.5l-18.1-48.4-45.1 3.9z" fill="#fff" stroke="#35a300" stroke-width="12.5px"/>
        </g>
        <g transform="matrix(.7533 .28969 -.27697 .72021 4130.2 -16877)">
            <path d="m11432 12585-5.3 10.8s15.3 0.3 12.5 12.2" fill="none" stroke="#35a300" stroke-width="7.92px"/>
        </g>
        <g transform="translate(-1425.2 -17009)">
            <path d="m10664 12770c-20.8 10.4-29.3 34.4-45.3 39.1-43.5 13 21.8 75.6 38.3 67.1 0 0 53.9-33.1 55.6-58" fill="#fff" stroke="#35a300" stroke-width="12.5px"/>
        </g>
        <g transform="matrix(.38372 -.35304 .67707 .73592 -3569.7 -9866.8)">
            <ellipse cx="10630" cy="12850" rx="10.385" ry="26.238" fill="#35a300"/>
        </g>
        <g transform="matrix(.83104 .033926 -.030716 .75241 628.04 -14219)">
            <path d="m10624 12832s-39.2 28.4-67.3 48.7c-18 13-39.2 19.3-60.7 18.1-43.8-2.3-118.5-6.4-142.6-7.8-5.1-0.2-10.3 0.4-15.2 1.8-27.4 8.1-50.8 27.6-65.4 54.4-10.3 18.9-20.2 37.1-20.2 37.1 4.6 12.9 11.6 14.5 20.1 9.5 0 0 16.2-19.7 26.1-31.8 4.8-5.8 11.7-8.7 18.8-7.9 0 0 9.5 5.2 16.6 9.2 5.2 2.9 10.9 4.7 16.7 5.3 3.1 0.4 6.6 0.8 9.8 1.1 5.7 0.6 11-3.4 12.5-9.6 4.5-18.9 20.3-31.8 38-31 22.8 0.9 54.6 2.2 80.6 3.3 30 1.3 59.5-8.4 84.1-27.4 29.3-22.7 64.9-50.4 64.9-50.4-2.2-7.5-8.8-18.8-16.8-22.6z" fill="#fff" stroke="#35a300" stroke-width="15.76px"/>
        </g>
        <g transform="translate(-1424.5 -17009)">
            <path d="m10625 12838s-37 27.7-63.9 47.8c-17.7 13.2-39.3 20-61.4 19.1-53.9-2.2-153.1-6.2-153.1-6.2s-1.2 0.1-3.3 0.4c-30 4.1-56.3 22.2-70.8 48.8-10.2 18.7-19.9 36.5-19.9 36.5 4.6 12.9 11.6 14.5 20.1 9.5l25.8-37.4s0.1 0.2 0.4 0.5c5.9 6.5 13.1 11.8 21.2 15.5 3.9 1.8 8.3 3.8 12.4 5.6 8.2 3.8 17.6 3.5 25.6-0.6 1.4-0.8 2.7-1.5 4-2.1 5.4-2.9 9.4-7.9 10.8-13.9 4.7-19.5 22.5-33 42.6-32.2 25.5 1.1 60 2.5 86 3.6 23.6 1 46.8-6.4 65.4-20.9 30.4-23.6 73.9-57.3 73.9-57.3-2.2-7.5-7.8-12.9-15.8-16.7z" fill="#fff" stroke="#35a300" stroke-width="12.5px"/>
        </g>
        <g transform="translate(-55.94 -16589)">
            <path d="m9616.4 12274-39.21 421.4" fill="none" stroke="#35a300" stroke-width="6.25px"/>
        </g>
        <g transform="translate(-55.94 -16589)">
            <path d="m9371.8 12872v55.6c23.32 15.1 46.64 15.4 69.95 0v-63.1l-69.95 7.5z" fill="#fff" stroke="#35a300" stroke-width="12.5px"/>
        </g>
        <g transform="matrix(-.79788 .20553 .21792 .84595 14020 -16540)">
            <path d="m9433.5 12936 95.83-18.4 4.01 16.1-71.31 38.5-39.22-8.7-4.96-20.4 15.65-7.1z" fill="#35a300"/>
        </g>
        <g transform="matrix(.79788 .20553 -.21792 .84595 4685.2 -16540)">
            <path d="m9433.5 12936 95.83-18.4 4.01 16.1-71.31 38.5-39.22-8.7-4.96-20.4 15.65-7.1z" fill="#35a300"/>
        </g>
        <g transform="translate(-57.38 -16609)">
            <circle cx="9545.4" cy="13046" r="29.091" fill="#fff" stroke="#35a300" stroke-width="12.5px"/>
        </g>
        <g transform="translate(-333.51 -16609)">
            <circle cx="9545.4" cy="13046" r="29.091" fill="#fff" stroke="#35a300" stroke-width="12.5px"/>
        </g>
        <g transform="translate(-49.914 -16568)">
            <path d="m9173 13003-25.79-4.5s-60.74 44.7-67.04 63c-6.3 18.4 29.24 21.2 85.4 9.2 56.17-12.1 78.52-32.2 78.52-32.2s5.14-29.8-15.49-30.9c-20.64-1.1-40.12 17.8-55.6-4.6z" fill="#fff" stroke="#35a300" stroke-width="12.5px"/>
        </g>
        <g transform="translate(-55.94 -16589)">
            <path d="m9179.7 12993 3.8 30.5c6.48 9.5 20.94 10.2 41.62 4l-5.51-31.4-39.91-3.1z" fill="none" stroke="#35a300" stroke-width="12.5px"/>
        </g>
        <g transform="translate(-6844.5 -9676.7)">
            <path d="m15978 5717.1c47.6 1.7 125.3 30.12 157.1 44.44s79.2 27.2 135.4-17.53" fill="none" stroke="#35a300" stroke-dasharray="7.2,14.4,0,0" stroke-width="4.8px"/>
        </g>
    </g>
</svg>
