<!-- <?xml version="1.0" encoding="UTF-8" standalone="no"?>
<!DOCTYPE svg PUBLIC "-//W3C//DTD SVG 1.1//EN" "http://www.w3.org/Graphics/SVG/1.1/DTD/svg11.dtd"> -->
<svg width="100%" height="100%" viewBox="0 0 216 298" version="1.1" xmlns="http://www.w3.org/2000/svg" xmlns:xlink="http://www.w3.org/1999/xlink" xml:space="preserve" xmlns:serif="http://www.serif.com/" style="fill-rule:evenodd;clip-rule:evenodd;stroke-linecap:round;stroke-miterlimit:5;">
    <g transform="matrix(1,0,0,1,-258.761,-84.2193)">
        <g transform="matrix(0.14069,-0.0891663,0.0978655,0.154416,-433.551,1646.73)">
            <g transform="matrix(0.849386,0.224919,-0.246863,0.773885,-3022.9,-11859.3)">
                <path d="M15800.9,4655.12L15822.4,4699.69L15858.6,4657.23L15864.8,4702.82L15914.7,4663.51L15905.6,4708.99L15968.1,4673.81L15943.8,4718.06L16017.4,4687.87L15978.5,4729.8L16061.3,4705.35L16008.8,4743.92L16098.9,4725.81L16034,4760.09L16129.1,4748.75L16053.5,4777.88L16151.2,4773.61L16066.8,4796.88L16164.7,4799.78L16073.5,4816.61L16169.2,4826.6L16073.5,4836.59L16164.7,4853.43L16066.8,4856.32L16151.2,4879.59L16053.5,4875.32L16129.1,4904.45L16034,4893.12L16098.9,4927.4L16008.8,4909.28L16061.3,4947.86L15978.5,4923.4L16017.4,4965.33L15943.8,4935.15L15968.1,4979.39L15905.6,4944.21L15914.7,4989.69L15864.8,4950.39L15858.6,4995.97L15822.4,4953.51L15800.9,4998.08L15779.5,4953.51L15743.3,4995.97L15737.1,4950.39L15687.2,4989.69L15696.3,4944.21L15633.8,4979.39L15658.1,4935.15L15584.5,4965.33L15623.4,4923.4L15540.6,4947.86L15593.1,4909.28L15503,4927.4L15567.9,4893.12L15472.8,4904.45L15548.4,4875.32L15450.7,4879.59L15535.1,4856.32L15437.2,4853.43L15528.4,4836.59L15432.7,4826.6L15528.4,4816.61L15437.2,4799.78L15535.1,4796.88L15450.7,4773.61L15548.4,4777.88L15472.8,4748.75L15567.9,4760.09L15503,4725.81L15593.1,4743.92L15540.6,4705.35L15623.4,4729.8L15584.5,4687.87L15658.1,4718.06L15633.8,4673.81L15696.3,4708.99L15687.2,4663.51L15737.1,4702.82L15743.3,4657.23L15779.5,4699.69L15800.9,4655.12Z" style="fill:rgb(53,163,0);"/>
                <path d="M15809.8,4650.86L15800.9,4632.47L15777.2,4681.84C15777.2,4681.84 15736.6,4634.14 15736.6,4634.14L15729.7,4684.49C15729.7,4684.49 15672.2,4639.3 15672.2,4639.3L15682.5,4689.93C15682.5,4689.93 15608.6,4648.37 15608.6,4648.37L15636.1,4698.41C15636.1,4698.41 15547,4661.87 15547,4661.87L15591.9,4710.25C15591.9,4710.25 15543.3,4695.93 15543.3,4695.93L15534.7,4713.26L15551.4,4725.53C15551.4,4725.53 15505,4716.18 15505,4716.18L15498.4,4734.49L15516.6,4744.08C15516.6,4744.08 15474,4739 15474,4739L15469.3,4757.91L15488.8,4765.45C15488.8,4765.45 15451.2,4763.8 15451.2,4763.8L15448.1,4783.08L15469.6,4788.99C15469.6,4788.99 15436.9,4789.96 15436.9,4789.96L15435.5,4809.43L15459.7,4813.91C15459.7,4813.91 15431.7,4816.83 15431.7,4816.83L15431.7,4836.37L15459.7,4839.29C15459.7,4839.29 15435.5,4843.77 15435.5,4843.77L15436.9,4863.24L15469.6,4864.21C15469.6,4864.21 15448.1,4870.12 15448.1,4870.12L15451.2,4889.4L15488.8,4887.75C15488.8,4887.75 15469.3,4895.29 15469.3,4895.29L15474,4914.2L15516.6,4909.12C15516.6,4909.12 15498.4,4918.71 15498.4,4918.71L15505,4937.02L15551.4,4927.67C15551.4,4927.67 15534.7,4939.94 15534.7,4939.94L15543.3,4957.28L15591.9,4942.95C15591.9,4942.95 15547,4991.34 15547,4991.34L15636.1,4954.79C15636.1,4954.79 15608.6,5004.83 15608.6,5004.83L15682.5,4963.28C15682.5,4963.28 15672.2,5013.91 15672.2,5013.91L15729.7,4968.71C15729.7,4968.71 15736.6,5019.06 15736.6,5019.06L15777.2,4971.37C15777.2,4971.37 15800.9,5020.73 15800.9,5020.73L15824.7,4971.37C15824.7,4971.37 15865.3,5019.06 15865.3,5019.06L15872.2,4968.71C15872.2,4968.71 15929.6,5013.91 15929.6,5013.91L15919.4,4963.28C15919.4,4963.28 15993.3,5004.83 15993.3,5004.83L15965.8,4954.79C15965.8,4954.79 16054.9,4991.34 16054.9,4991.34L16010,4942.95C16010,4942.95 16058.6,4957.28 16058.6,4957.28L16067.2,4939.94L16050.4,4927.67C16050.4,4927.67 16096.9,4937.02 16096.9,4937.02L16103.5,4918.71L16085.3,4909.12C16085.3,4909.12 16127.9,4914.2 16127.9,4914.2L16132.6,4895.29L16113.1,4887.75C16113.1,4887.75 16150.7,4889.4 16150.7,4889.4L16153.8,4870.12L16132.3,4864.21C16132.3,4864.21 16165,4863.24 16165,4863.24L16166.4,4843.77L16142.2,4839.29C16142.2,4839.29 16170.2,4836.37 16170.2,4836.37L16170.2,4816.83L16142.2,4813.91C16142.2,4813.91 16166.4,4809.43 16166.4,4809.43L16165,4789.96L16132.3,4788.99C16132.3,4788.99 16153.8,4783.08 16153.8,4783.08L16150.7,4763.8L16113.1,4765.45C16113.1,4765.45 16132.6,4757.91 16132.6,4757.91L16127.9,4739L16085.3,4744.08C16085.3,4744.08 16103.5,4734.49 16103.5,4734.49L16096.9,4716.18L16050.4,4725.53C16050.4,4725.53 16067.2,4713.26 16067.2,4713.26L16058.6,4695.93L16010,4710.25C16010,4710.25 16054.9,4661.87 16054.9,4661.87L15965.8,4698.41C15965.8,4698.41 15993.3,4648.37 15993.3,4648.37L15919.4,4689.93C15919.4,4689.93 15929.6,4639.3 15929.6,4639.3L15872.2,4684.49C15872.2,4684.49 15865.3,4634.14 15865.3,4634.14L15824.7,4681.84C15824.7,4681.84 15809.8,4650.86 15809.8,4650.86ZM15800.9,4655.12L15822.4,4699.69L15858.6,4657.23L15864.8,4702.82L15914.7,4663.51L15905.6,4708.99L15968.1,4673.81L15943.8,4718.06L16017.4,4687.87L15978.5,4729.8L16061.3,4705.35L16008.8,4743.92L16098.9,4725.81L16034,4760.09L16129.1,4748.75L16053.5,4777.88L16151.2,4773.61L16066.8,4796.88L16164.7,4799.78L16073.5,4816.61L16169.2,4826.6L16073.5,4836.59L16164.7,4853.43L16066.8,4856.32L16151.2,4879.59L16053.5,4875.32L16129.1,4904.45L16034,4893.12L16098.9,4927.4L16008.8,4909.28L16061.3,4947.86L15978.5,4923.4L16017.4,4965.33L15943.8,4935.15L15968.1,4979.39L15905.6,4944.21L15914.7,4989.69L15864.8,4950.39L15858.6,4995.97L15822.4,4953.51L15800.9,4998.08L15779.5,4953.51L15743.3,4995.97L15737.1,4950.39L15687.2,4989.69L15696.3,4944.21L15633.8,4979.39L15658.1,4935.15L15584.5,4965.33L15623.4,4923.4L15540.6,4947.86L15593.1,4909.28L15503,4927.4L15567.9,4893.12L15472.8,4904.45L15548.4,4875.32L15450.7,4879.59L15535.1,4856.32L15437.2,4853.43L15528.4,4836.59L15432.7,4826.6L15528.4,4816.61L15437.2,4799.78L15535.1,4796.88L15450.7,4773.61L15548.4,4777.88L15472.8,4748.75L15567.9,4760.09L15503,4725.81L15593.1,4743.92L15540.6,4705.35L15623.4,4729.8L15584.5,4687.87L15658.1,4718.06L15633.8,4673.81L15696.3,4708.99L15687.2,4663.51L15737.1,4702.82L15743.3,4657.23L15779.5,4699.69L15800.9,4655.12Z" style="fill:white;"/>
            </g>
            <g transform="matrix(0.6029,0.157718,-0.131714,0.52841,1096.49,-10096)">
                <text x="14494.8px" y="6129.65px" style="font-family:'SignPainter-HouseScriptSemibold', 'SignPainter';font-size:295.533px;fill:white;">C<tspan x="14625.4px 14781.2px 14920.9px " y="6129.65px 6129.65px 6129.65px ">ODE</tspan></text>
            </g>
            <g transform="matrix(0.452938,0.261545,-0.270938,0.429049,4047.95,-11244.8)">
                <text x="14494.8px" y="6129.65px" style="font-family:'SignPainter-HouseScriptSemibold', 'SignPainter';font-size:295.533px;fill:rgb(53,163,0);">N<tspan x="14629px 14720.6px " y="6129.65px 6129.65px ">ew</tspan></text>
            </g>
            <g transform="matrix(0.456932,0.263851,-0.290504,0.460033,4250.72,-11009)">
                <text x="14494.8px" y="6129.65px" style="font-family:'SignPainter-HouseScriptSemibold', 'SignPainter';font-size:295.533px;fill:rgb(53,163,0);">D<tspan x="14631.6px 14751.9px 14809.8px " y="6129.65px 6129.65px 6129.65px ">ail</tspan>y</text>
            </g>
            <g transform="matrix(1.13732,0,0,1.05409,-9513.74,-9904.27)">
                <path d="M16354.8,5108.77C16346.4,5147.09 16317.7,5172.51 16280.3,5192.48L16265.9,5158.1L16212.1,5252.69L16337.1,5263.54L16312.4,5237.75C16363.6,5217.98 16421.5,5172.1 16439.3,5139.43C16416.9,5130.26 16354.8,5108.77 16354.8,5108.77Z" style="fill:rgb(53,163,0);"/>
            </g>
        </g>
        <g transform="matrix(0.231504,0,0,0.231504,-121.481,-342.381)">
            <g transform="matrix(1,0,0,1,-6447.18,-9965.81)">
                <path d="M8163.91,12644.1L8121.54,12989.2L8159.78,12989.2L8183.72,12963.4L8254.65,12644.3L8163.91,12644.1Z" style="fill:none;stroke:rgb(53,163,0);stroke-width:12.5px;"/>
            </g>
            <g transform="matrix(-1,0,0,1,10454.5,-9968.83)">
                <path d="M8163.91,12644.1L8124.62,12958.3L8133.72,12989.6L8176.57,12989.2L8254.65,12644.3L8163.91,12644.1Z" style="fill:none;stroke:rgb(53,163,0);stroke-width:12.5px;"/>
            </g>
            <g transform="matrix(1,0,0,1,-6240.86,-10203.3)">
                <path d="M8163.91,12731.2L8121.54,13076.3L8159.61,13076.3L8180.28,13056.8L8254.65,12731.4L8163.91,12731.2Z" style="fill:rgb(53,163,0);"/>
            </g>
            <g transform="matrix(-1,0,0,1,10561.1,-10210.1)">
                <path d="M8163.91,12731.2L8126.71,13051.7L8140.71,13076.3L8176.57,13076.3L8254.65,12731.4L8163.91,12731.2Z" style="fill:rgb(53,163,0);"/>
            </g>
            <g transform="matrix(1,0,0,1,-6515.76,-9911.99)">
                <path d="M8258.45,12516.9C8241.42,12525.8 8230.78,12543.5 8230.87,12562.7C8230.95,12579.9 8231.03,12597.9 8231.03,12597.9C8231.03,12597.9 8724.44,12598.4 8799.85,12598.4C8806.02,12598.4 8811.97,12596.1 8816.46,12591.8C8840.57,12569.1 8918.78,12495.3 8918.78,12495.3C8918.78,12495.3 8919.17,12472.3 8919.5,12452.4C8919.63,12444.9 8916.75,12437.7 8911.52,12432.4C8906.29,12427.1 8899.14,12424.1 8891.68,12424.1C8797.96,12424.1 8500.56,12424.1 8444.85,12424.1C8438.91,12424.1 8433.06,12425.5 8427.8,12428.3C8399.85,12442.9 8305.8,12492.1 8258.45,12516.9Z" style="fill:white;stroke:rgb(53,163,0);stroke-width:12.5px;"/>
            </g>
            <g transform="matrix(1,0,0,1,-6837.92,-9754.36)">
                <path d="M8604.14,12385.6L9076.4,12385.6C9094.36,12385.6 9111.74,12379.2 9125.4,12367.5C9153.26,12343.7 9198.76,12304.8 9198.76,12304.8" style="fill:none;stroke:rgb(53,163,0);stroke-width:6.25px;"/>
            </g>
        </g>
        <g transform="matrix(0.225411,-0.0527632,0.0527632,0.225411,-1629.35,1662.63)">
            <g transform="matrix(1.19857,-0.287099,0.405187,1.69155,-9489.75,-9170.54)">
                <path d="M13987.6,5629.3C13986.5,5628.92 13985.3,5628.96 13984.4,5629.41C13983.4,5629.86 13982.9,5630.65 13983,5631.45C13983,5631.45 13983,5631.46 13983,5631.46C13983.1,5632.32 13983.9,5633.05 13985,5633.36C13986.2,5633.68 13987.5,5633.51 13988.4,5632.93C13990.1,5631.81 13991.6,5630.82 13991.6,5630.82C13991.6,5630.82 13989.7,5630.09 13987.6,5629.3Z" style="fill:rgb(53,163,0);"/>
            </g>
            <g transform="matrix(1,0,0,1,-6840.19,-9674.97)">
                <path d="M16401.3,6013.94L16406.4,6010.15L16409.9,5996.22" style="fill:none;stroke:rgb(53,163,0);stroke-width:4.17px;"/>
            </g>
            <g transform="matrix(1,0,0,-1,-6839.84,2353.07)">
                <path d="M16401.3,6013.94L16406.4,6010.15L16409.9,5996.22" style="fill:none;stroke:rgb(53,163,0);stroke-width:4.17px;"/>
            </g>
            <g transform="matrix(1,0,0,1,-4439.06,-9291.61)">
                <path d="M14034,5582.94C14011.6,5574.06 14000.4,5573.78 13982.9,5582.67C13977,5585.68 13970,5593.21 13962.9,5598.26C13954.3,5604.35 13946,5609.75 13940.9,5613C13940.1,5613.45 13939.8,5614.3 13940,5615.12C13940.2,5615.94 13940.9,5616.52 13941.8,5616.57C13946.1,5616.82 13951.9,5617.16 13956.6,5617.43C13961.2,5617.69 13964.6,5621.54 13964.4,5626.06C13963.6,5641.35 13967.4,5653.29 13976.4,5661.48C13976.4,5661.48 13971.7,5672.67 13967.9,5681.57C13967.1,5683.41 13967.5,5685.55 13968.9,5686.99C13970.3,5688.43 13972.4,5688.91 13974.3,5688.2C13983.5,5684.75 13995,5680.39 13995,5680.39L14016.8,5683.54C14016.8,5683.54 14015.4,5685.96 14013.9,5688.42C14011.9,5691.63 14011.8,5695.6 14013.4,5698.97C14015.1,5702.37 14017.3,5706.89 14019.3,5711.02C14022.5,5717.69 14029.3,5721.94 14036.7,5721.93C14041.2,5721.93 14045.2,5721.93 14045.2,5721.93C14052.6,5719.81 14045.5,5710.23 14044.3,5699.81C14054.5,5687.77 14062.6,5689.44 14070.4,5693.83L14089,5699.85L14096.5,5688.67L14092.5,5694.69L14089.9,5720.48L14079.3,5728.15C14079.3,5728.15 14055.2,5734.79 14047.9,5736.82C14046.5,5737.2 14045.2,5737.9 14044.1,5738.86C14043.5,5739.46 14042.6,5740.2 14041.8,5740.98C14038,5744.4 14037.6,5750.25 14041,5754.09C14041.3,5754.45 14041.6,5754.8 14041.9,5755.14C14044.1,5757.64 14047.5,5758.78 14050.8,5758.11C14058.2,5756.6 14070.9,5754.02 14070.9,5754.02L14097.6,5751.72L14108.5,5735.66L14120,5730.5C14121.5,5730.18 14124,5734.74 14124,5734.74L14125.5,5752.8L14132,5757.39L14123.7,5763.4C14123.7,5763.4 14103.7,5773.63 14097.8,5776.64C14096.8,5777.17 14095.9,5777.97 14095.2,5778.96C14094,5780.84 14091.8,5784.16 14089.8,5787.17C14088.8,5788.78 14088.4,5790.78 14088.9,5792.65C14089.4,5794.53 14090.7,5796.11 14092.4,5797C14095.3,5798.53 14098.7,5800.27 14101.3,5801.64C14104.1,5803.04 14107.4,5802.48 14109.5,5800.27C14113.4,5796.05 14119.4,5789.77 14119.4,5789.77L14153.6,5779.44L14174.7,5762.31L14168.4,5744.08L14185.1,5749.62C14185.1,5749.62 14194.4,5736.77 14185.1,5749.62L14164.5,5791.59C14156,5819.04 14165.4,5840.51 14176.1,5853.65C14178.1,5856.14 14181.1,5857.68 14184.3,5857.89C14187.5,5858.11 14190.7,5856.98 14193,5854.78C14193,5854.83 14193,5854.83 14193,5854.83C14196.2,5851.83 14196.8,5846.97 14194.4,5843.32C14189.9,5836.56 14183.4,5826.77 14183.4,5826.77C14175.7,5797.01 14205,5760.01 14238.6,5705.76C14257.7,5650.05 14228.7,5615.22 14175,5591.12C14168.1,5588.02 14160.8,5585.95 14153.4,5584.98C14136.7,5582.78 14104,5578.53 14090.7,5576.79C14087,5576.31 14083.3,5576.87 14079.9,5578.39C14070.8,5582.45 14050.6,5589.56 14034,5582.94Z" style="fill:none;stroke:rgb(53,163,0);stroke-width:12.5px;"/>
            </g>
            <g transform="matrix(1,0,0,1,-4445.73,-9302.14)">
                <path d="M14077.6,5585.87L14061.8,5596.75C14057.2,5599.91 14053.5,5604.1 14051,5608.89C14048.5,5613.68 14047.2,5619.07 14047.2,5624.64L14047.5,5629.43C14048.5,5637.28 14052.4,5644.17 14057.9,5649.07C14063.5,5653.96 14070.8,5656.9 14078.7,5656.88L14078.4,5656.87L14092.6,5656.92C14097,5656.78 14101.1,5655.18 14104.2,5652.33C14107.2,5649.53 14109.3,5645.75 14109.7,5641.41C14109.7,5641.41 14109.7,5641.4 14109.7,5641.4C14110.1,5637.17 14109,5633.08 14106.6,5629.93C14104.2,5626.88 14100.9,5624.5 14096.9,5623.78C14096.9,5623.78 14086,5621.94 14086,5621.94C14084.3,5621.52 14082.6,5622.56 14082.1,5624.28C14081.7,5625.99 14082.7,5627.73 14084.5,5628.16L14094.9,5631.64C14096.7,5632.22 14098,5633.58 14098.9,5635.11C14099.7,5636.52 14099.9,5638.24 14099.5,5639.96L14099.5,5639.96C14099.2,5641.63 14098.2,5642.95 14096.9,5643.94C14095.8,5644.88 14094.2,5645.3 14092.6,5645.23C14092.6,5645.23 14078.9,5644.65 14078.9,5644.65L14078.8,5644.65C14074,5644.59 14069.6,5642.72 14066.2,5639.72C14062.9,5636.73 14060.6,5632.58 14060.1,5627.84L14059.8,5624.53C14059.8,5621.07 14060.7,5617.72 14062.2,5614.73C14063.8,5611.73 14066.1,5609.1 14069,5607.11C14069,5607.11 14084.7,5596.15 14084.7,5596.15C14087.5,5594.18 14088.3,5590.29 14086.3,5587.45C14084.3,5584.61 14080.4,5583.9 14077.6,5585.87Z" style="fill:rgb(53,163,0);"/>
            </g>
            <g transform="matrix(0.973681,0.227915,-0.227915,0.973681,-3874.75,-13039.4)">
                <path d="M15255.3,6117.09C15255.9,6115.14 15256.9,6113.3 15258.2,6111.49C15259.1,6110.15 15260.2,6108.88 15261.3,6107.53C15261.5,6107.19 15261.8,6106.81 15262,6106.44C15264,6103.49 15265.7,6100.58 15268.5,6097.75C15269.9,6096.92 15270.3,6095.13 15269.5,6093.74C15268.7,6092.36 15266.9,6091.91 15265.5,6092.74C15261.2,6093.94 15257.7,6095.38 15254.2,6097.46C15253.3,6098.02 15252.5,6098.66 15251.7,6099.37C15247.5,6103.32 15244.9,6108.35 15243.3,6113.31C15242.3,6116.6 15244.1,6120.11 15247.4,6121.15C15250.7,6122.2 15254.2,6120.37 15255.3,6117.09Z" style="fill:rgb(53,163,0);"/>
            </g>
            <g transform="matrix(2.0316,-0.475392,0.380335,1.62537,-23621,-6254.32)">
                <path d="M15251,6119.68C15251.4,6114.61 15252.6,6108.11 15254.8,6102.28C15255.6,6099.95 15256.6,6097.72 15257.8,6095.73C15258.8,6093.92 15259.9,6092.28 15261.2,6090.97C15263.2,6089.01 15265.4,6087.6 15268.2,6087.46C15269,6087.51 15269.6,6086.77 15269.7,6085.8C15269.7,6084.84 15269.1,6084.02 15268.4,6083.97C15264.8,6083.32 15261.6,6084.34 15258.7,6086.4C15256.8,6087.76 15255.2,6089.64 15253.7,6091.82C15252.2,6094.06 15251,6096.67 15249.9,6099.42C15247.4,6105.97 15246.1,6113.42 15245.8,6119.17C15245.7,6120.98 15246.7,6122.56 15248.2,6122.7C15249.6,6122.85 15250.9,6121.49 15251,6119.68Z" style="fill:rgb(53,163,0);"/>
            </g>
            <g transform="matrix(-1.33621,-1.60248,-1.28206,1.06903,37953.5,14366.7)">
                <path d="M15245.8,6119.17C15246.2,6111.34 15247.2,6102.39 15251.1,6092.96C15252.6,6089.26 15254.6,6085.48 15257.2,6081.74C15259.4,6078.64 15261.9,6075.63 15265,6072.56C15265.5,6071.89 15266.4,6071.91 15266.9,6072.61C15267.5,6073.31 15267.4,6074.42 15266.9,6075.08C15264.4,6078.53 15262.5,6081.92 15260.8,6085.15C15258.8,6088.9 15257.2,6092.47 15255.9,6095.91C15252.6,6104.63 15251.5,6112.58 15251,6119.68C15250.9,6121.49 15249.6,6122.85 15248.2,6122.7C15246.7,6122.56 15245.7,6120.98 15245.8,6119.17Z" style="fill:rgb(53,163,0);"/>
            </g>
            <g transform="matrix(1.75325,0,0,1.75325,-19187.4,-14199.2)">
                <circle cx="16388.5" cy="6001.64" r="2.364" style="fill:rgb(53,163,0);"/>
            </g>
            <g transform="matrix(1.75325,0,0,1.75325,-19177.3,-14164.1)">
                <circle cx="16388.5" cy="6001.64" r="2.364" style="fill:rgb(53,163,0);"/>
            </g>
        </g>
        <g transform="matrix(0.231504,0,0,0.231504,-1251.74,1118.59)">
            <g transform="matrix(1,0,0,1,-6844.49,-9676.69)">
                <path d="M13649.8,5828.62L13649.8,5918.03C13649.8,5918.03 13625,5934.81 13606.3,5947.5C13603.5,5949.38 13602.3,5952.84 13603.3,5956.04C13604.3,5959.24 13607.2,5961.43 13610.6,5961.43L13703.3,5961.43C13709.1,5961.43 13714.8,5959.34 13719.3,5955.54C13730.1,5946.32 13751.4,5928.18 13766.9,5915.01C13769.7,5912.6 13770.8,5908.69 13769.5,5905.21C13768.2,5901.73 13764.9,5899.42 13761.2,5899.42C13731.6,5899.42 13685.3,5899.42 13685.3,5899.42L13685.3,5810.12" style="fill:rgb(53,163,0);"/>
            </g>
            <g transform="matrix(1.229,0,0,1.229,-9792.48,-11052.2)">
                <path d="M13711.5,5477.09C13711.4,5470.59 13706.9,5464.97 13700.6,5463.44C13651.4,5451.52 13449.1,5402.58 13432.8,5398.64C13432.2,5398.47 13431.4,5398.39 13430.7,5398.4C13425.9,5398.45 13406.1,5398.67 13392.1,5398.83C13384.2,5398.91 13377.8,5405.36 13377.7,5413.3C13377.3,5484.43 13375.6,5799.64 13375.1,5881.81C13375.1,5887.01 13377.1,5892 13380.8,5895.68C13384.5,5899.36 13389.4,5901.43 13394.6,5901.42C13408.1,5901.4 13424.9,5901.37 13432.9,5901.36C13436,5901.35 13439,5900.74 13441.8,5899.56C13472.6,5886.71 13660.4,5808.28 13705.8,5789.31C13711.8,5786.82 13715.7,5780.95 13715.6,5774.48C13714.9,5725.88 13712.2,5526.39 13711.5,5477.09Z" style="fill:white;stroke:rgb(53,163,0);stroke-width:10.17px;"/>
            </g>
            <g transform="matrix(1.21555,0,0,1.21249,-9741.51,-10876.1)">
                <path d="M13558.1,5358.71C13554.9,5357.99 13551.5,5358.78 13548.9,5360.86C13546.3,5362.93 13544.8,5366.06 13544.8,5369.37C13544.8,5434.93 13544.8,5717.91 13544.8,5787.99C13544.8,5791.57 13546.6,5794.93 13549.5,5796.97C13552.5,5799.01 13556.2,5799.48 13559.6,5798.22C13608.5,5779.89 13764.7,5721.35 13800,5708.1C13804.3,5706.49 13807.2,5702.35 13807.1,5697.74C13806.6,5656.9 13804.5,5465.18 13804,5421.97C13803.9,5416.89 13800.4,5412.52 13795.5,5411.42C13757.7,5403.04 13604.3,5368.98 13558.1,5358.71Z" style="fill:rgb(53,163,0);"/>
            </g>
            <g transform="matrix(1.229,0,0,1.229,-9919.82,-10955.7)">
                <circle cx="13507.7" cy="5726.37" r="9.17" style="fill:white;stroke:rgb(53,163,0);stroke-width:5.09px;"/>
            </g>
            <g transform="matrix(1.229,0,0,1.229,-9919.82,-10914.8)">
                <circle cx="13507.7" cy="5726.37" r="9.17" style="fill:white;stroke:rgb(53,163,0);stroke-width:5.09px;"/>
            </g>
        </g>
        <g transform="matrix(0.231504,0,0,0.231504,-2843.63,-1119.57)">
            <path d="M13970,5858.76C13965,5857.96 13959.9,5859.1 13955.8,5861.95C13932.4,5877.84 13853.5,5931.64 13835.3,5944.06C13833,5945.65 13831.7,5948.36 13831.8,5951.19C13832,5953.15 13832.1,5955.51 13832.2,5957.72C13832.5,5961.96 13836,5965.26 13840.2,5965.26C13867,5965.26 13957,5965.26 13985.4,5965.26C13990.9,5965.26 13996.3,5963.25 14000.6,5959.6C14017.2,5945.3 14061,5907.48 14082.3,5889.11C14084.5,5887.24 14085.4,5884.29 14084.6,5881.54C14083.8,5878.79 14081.5,5876.74 14078.7,5876.29C14050.3,5871.71 13991.2,5862.18 13970,5858.76Z" style="fill:white;stroke:rgb(53,163,0);stroke-width:12.5px;"/>
        </g>
        <g transform="matrix(0.230651,0.00395538,0.00395538,0.213162,-3202.29,-1018.7)">
            <path d="M15036.4,5841.68L14971.4,6142.93" style="fill:none;stroke:rgb(53,163,0);stroke-width:6.4px;"/>
        </g>
        <g transform="matrix(0.217371,-0.0772345,0.0785053,0.198219,-3322.99,288.515)">
            <path d="M15036.4,5841.68L14971.4,6142.93" style="fill:none;stroke:rgb(53,163,0);stroke-width:6.4px;"/>
        </g>
        <g transform="matrix(0.269812,0.0280903,-0.130769,0.0888963,-2540.58,393.427)">
            <g transform="matrix(1,0,0,1,-6844.49,-9676.69)">
                <path d="M15563.9,5354.16C15563.9,5351.81 15563.2,5349.89 15562.3,5349.89L15543.8,5349.89C15542.9,5349.89 15542.2,5351.81 15542.2,5354.16L15542.2,5367.33C15542.2,5369.69 15542.9,5371.6 15543.8,5371.6L15562.3,5371.6C15563.2,5371.6 15563.9,5369.69 15563.9,5367.33L15563.9,5354.16Z" style="fill:rgb(53,163,0);"/>
            </g>
            <g transform="matrix(1,0,0,1,-6815.9,-9676.69)">
                <path d="M15563.9,5354.16C15563.9,5351.81 15563.2,5349.89 15562.3,5349.89L15543.8,5349.89C15542.9,5349.89 15542.2,5351.81 15542.2,5354.16L15542.2,5367.33C15542.2,5369.69 15542.9,5371.6 15543.8,5371.6L15562.3,5371.6C15563.2,5371.6 15563.9,5369.69 15563.9,5367.33L15563.9,5354.16Z" style="fill:rgb(53,163,0);"/>
            </g>
            <g transform="matrix(1,0,0,1,-6787.66,-9676.69)">
                <path d="M15563.9,5354.16C15563.9,5351.81 15563.2,5349.89 15562.3,5349.89L15543.8,5349.89C15542.9,5349.89 15542.2,5351.81 15542.2,5354.16L15542.2,5367.33C15542.2,5369.69 15542.9,5371.6 15543.8,5371.6L15562.3,5371.6C15563.2,5371.6 15563.9,5369.69 15563.9,5367.33L15563.9,5354.16Z" style="fill:rgb(53,163,0);"/>
            </g>
            <g transform="matrix(1,0,0,1,-6844.49,-9704.2)">
                <path d="M15563.9,5354.16C15563.9,5351.81 15563.2,5349.89 15562.3,5349.89L15543.8,5349.89C15542.9,5349.89 15542.2,5351.81 15542.2,5354.16L15542.2,5367.33C15542.2,5369.69 15542.9,5371.6 15543.8,5371.6L15562.3,5371.6C15563.2,5371.6 15563.9,5369.69 15563.9,5367.33L15563.9,5354.16Z" style="fill:rgb(53,163,0);"/>
            </g>
            <g transform="matrix(1,0,0,1,-6815.9,-9704.2)">
                <path d="M15563.9,5354.16C15563.9,5351.81 15563.2,5349.89 15562.3,5349.89L15543.8,5349.89C15542.9,5349.89 15542.2,5351.81 15542.2,5354.16L15542.2,5367.33C15542.2,5369.69 15542.9,5371.6 15543.8,5371.6L15562.3,5371.6C15563.2,5371.6 15563.9,5369.69 15563.9,5367.33L15563.9,5354.16Z" style="fill:rgb(53,163,0);"/>
            </g>
            <g transform="matrix(1,0,0,1,-6787.66,-9704.2)">
                <path d="M15563.9,5354.16C15563.9,5351.81 15563.2,5349.89 15562.3,5349.89L15543.8,5349.89C15542.9,5349.89 15542.2,5351.81 15542.2,5354.16L15542.2,5367.33C15542.2,5369.69 15542.9,5371.6 15543.8,5371.6L15562.3,5371.6C15563.2,5371.6 15563.9,5369.69 15563.9,5367.33L15563.9,5354.16Z" style="fill:rgb(53,163,0);"/>
            </g>
            <g transform="matrix(1,0,0,1,-6844.49,-9732.57)">
                <path d="M15563.9,5354.16C15563.9,5351.81 15563.2,5349.89 15562.3,5349.89L15543.8,5349.89C15542.9,5349.89 15542.2,5351.81 15542.2,5354.16L15542.2,5367.33C15542.2,5369.69 15542.9,5371.6 15543.8,5371.6L15562.3,5371.6C15563.2,5371.6 15563.9,5369.69 15563.9,5367.33L15563.9,5354.16Z" style="fill:rgb(53,163,0);"/>
            </g>
            <g transform="matrix(1,0,0,1,-6815.9,-9732.57)">
                <path d="M15563.9,5354.16C15563.9,5351.81 15563.2,5349.89 15562.3,5349.89L15543.8,5349.89C15542.9,5349.89 15542.2,5351.81 15542.2,5354.16L15542.2,5367.33C15542.2,5369.69 15542.9,5371.6 15543.8,5371.6L15562.3,5371.6C15563.2,5371.6 15563.9,5369.69 15563.9,5367.33L15563.9,5354.16Z" style="fill:rgb(53,163,0);"/>
            </g>
            <g transform="matrix(1,0,0,1,-6787.66,-9732.57)">
                <path d="M15563.9,5354.16C15563.9,5351.81 15563.2,5349.89 15562.3,5349.89L15543.8,5349.89C15542.9,5349.89 15542.2,5351.81 15542.2,5354.16L15542.2,5367.33C15542.2,5369.69 15542.9,5371.6 15543.8,5371.6L15562.3,5371.6C15563.2,5371.6 15563.9,5369.69 15563.9,5367.33L15563.9,5354.16Z" style="fill:rgb(53,163,0);"/>
            </g>
            <g transform="matrix(1,0,0,1,-6844.49,-9762.24)">
                <path d="M15563.9,5354.16C15563.9,5351.81 15563.2,5349.89 15562.3,5349.89L15543.8,5349.89C15542.9,5349.89 15542.2,5351.81 15542.2,5354.16L15542.2,5367.33C15542.2,5369.69 15542.9,5371.6 15543.8,5371.6L15562.3,5371.6C15563.2,5371.6 15563.9,5369.69 15563.9,5367.33L15563.9,5354.16Z" style="fill:rgb(53,163,0);"/>
            </g>
            <g transform="matrix(1,0,0,1,-6815.9,-9762.24)">
                <path d="M15563.9,5354.16C15563.9,5351.81 15563.2,5349.89 15562.3,5349.89L15543.8,5349.89C15542.9,5349.89 15542.2,5351.81 15542.2,5354.16L15542.2,5367.33C15542.2,5369.69 15542.9,5371.6 15543.8,5371.6L15562.3,5371.6C15563.2,5371.6 15563.9,5369.69 15563.9,5367.33L15563.9,5354.16Z" style="fill:rgb(53,163,0);"/>
            </g>
            <g transform="matrix(1,0,0,1,-6787.66,-9762.24)">
                <path d="M15563.9,5354.16C15563.9,5351.81 15563.2,5349.89 15562.3,5349.89L15543.8,5349.89C15542.9,5349.89 15542.2,5351.81 15542.2,5354.16L15542.2,5367.33C15542.2,5369.69 15542.9,5371.6 15543.8,5371.6L15562.3,5371.6C15563.2,5371.6 15563.9,5369.69 15563.9,5367.33L15563.9,5354.16Z" style="fill:rgb(53,163,0);"/>
            </g>
            <g transform="matrix(1,0,0,1,-6844.49,-9791.68)">
                <path d="M15563.9,5354.16C15563.9,5351.81 15563.2,5349.89 15562.3,5349.89L15543.8,5349.89C15542.9,5349.89 15542.2,5351.81 15542.2,5354.16L15542.2,5367.33C15542.2,5369.69 15542.9,5371.6 15543.8,5371.6L15562.3,5371.6C15563.2,5371.6 15563.9,5369.69 15563.9,5367.33L15563.9,5354.16Z" style="fill:rgb(53,163,0);"/>
            </g>
            <g transform="matrix(1,0,0,1,-6815.9,-9791.68)">
                <path d="M15563.9,5354.16C15563.9,5351.81 15563.2,5349.89 15562.3,5349.89L15543.8,5349.89C15542.9,5349.89 15542.2,5351.81 15542.2,5354.16L15542.2,5367.33C15542.2,5369.69 15542.9,5371.6 15543.8,5371.6L15562.3,5371.6C15563.2,5371.6 15563.9,5369.69 15563.9,5367.33L15563.9,5354.16Z" style="fill:rgb(53,163,0);"/>
            </g>
            <g transform="matrix(1,0,0,1,-6787.66,-9791.68)">
                <path d="M15563.9,5354.16C15563.9,5351.81 15563.2,5349.89 15562.3,5349.89L15543.8,5349.89C15542.9,5349.89 15542.2,5351.81 15542.2,5354.16L15542.2,5367.33C15542.2,5369.69 15542.9,5371.6 15543.8,5371.6L15562.3,5371.6C15563.2,5371.6 15563.9,5369.69 15563.9,5367.33L15563.9,5354.16Z" style="fill:rgb(53,163,0);"/>
            </g>
            <g transform="matrix(1,0,0,1,-6844.49,-9820.05)">
                <path d="M15563.9,5354.16C15563.9,5351.81 15563.2,5349.89 15562.3,5349.89L15543.8,5349.89C15542.9,5349.89 15542.2,5351.81 15542.2,5354.16L15542.2,5367.33C15542.2,5369.69 15542.9,5371.6 15543.8,5371.6L15562.3,5371.6C15563.2,5371.6 15563.9,5369.69 15563.9,5367.33L15563.9,5354.16Z" style="fill:rgb(53,163,0);"/>
            </g>
            <g transform="matrix(1,0,0,1,-6815.9,-9820.05)">
                <path d="M15563.9,5354.16C15563.9,5351.81 15563.2,5349.89 15562.3,5349.89L15543.8,5349.89C15542.9,5349.89 15542.2,5351.81 15542.2,5354.16L15542.2,5367.33C15542.2,5369.69 15542.9,5371.6 15543.8,5371.6L15562.3,5371.6C15563.2,5371.6 15563.9,5369.69 15563.9,5367.33L15563.9,5354.16Z" style="fill:rgb(53,163,0);"/>
            </g>
            <g transform="matrix(1,0,0,1,-6787.66,-9820.05)">
                <path d="M15563.9,5354.16C15563.9,5351.81 15563.2,5349.89 15562.3,5349.89L15543.8,5349.89C15542.9,5349.89 15542.2,5351.81 15542.2,5354.16L15542.2,5367.33C15542.2,5369.69 15542.9,5371.6 15543.8,5371.6L15562.3,5371.6C15563.2,5371.6 15563.9,5369.69 15563.9,5367.33L15563.9,5354.16Z" style="fill:rgb(53,163,0);"/>
            </g>
        </g>
        <g transform="matrix(0.231504,0,0,0.231504,-1601.34,1179.2)">
            <g>
                <g transform="matrix(1,0,0,1,-6844.49,-9676.69)">
                    <path d="M15112.3,5156.93L15188.1,5156.93" style="fill:none;stroke:white;stroke-width:6.25px;"/>
                </g>
                <g transform="matrix(0.735531,0,0,1,-2847.77,-9660.93)">
                    <path d="M15112.3,5156.93L15188.1,5156.93" style="fill:none;stroke:white;stroke-width:7.12px;"/>
                </g>
                <g transform="matrix(1.32113,0,0,1,-11697.4,-9645.45)">
                    <path d="M15112.3,5156.93L15188.1,5156.93" style="fill:none;stroke:white;stroke-width:5.33px;"/>
                </g>
                <g transform="matrix(1.06423,0,0,1,-7815.11,-9629.12)">
                    <path d="M15112.3,5156.93L15188.1,5156.93" style="fill:none;stroke:white;stroke-width:6.05px;"/>
                </g>
            </g>
        </g>
    </g>
</svg>
