<!-- <?xml version="1.0" encoding="UTF-8" standalone="no"?>
<!DOCTYPE svg PUBLIC "-//W3C//DTD SVG 1.1//EN" "http://www.w3.org/Graphics/SVG/1.1/DTD/svg11.dtd"> -->
<svg width="100%" height="100%" viewBox="0 0 197 264" version="1.1" xmlns="http://www.w3.org/2000/svg" xmlns:xlink="http://www.w3.org/1999/xlink" xml:space="preserve" xmlns:serif="http://www.serif.com/" style="fill-rule:evenodd;clip-rule:evenodd;stroke-linecap:round;stroke-miterlimit:5;">
    <g transform="matrix(1,0,0,1,-330.562,-86.6889)">
        <g transform="matrix(0.208333,0,0,0.208333,-1485.63,1071.16)">
            <g transform="matrix(0.846571,0.532276,-0.532276,0.846571,8036.68,-19569.2)">
                <path d="M9173.01,13003L9147.22,12998.5C9147.22,12998.5 9086.48,13043.2 9080.18,13061.5C9073.88,13079.9 9109.42,13082.7 9165.58,13070.7C9221.75,13058.6 9244.1,13038.5 9244.1,13038.5C9244.1,13038.5 9249.24,13008.7 9228.61,13007.6C9207.97,13006.5 9188.49,13025.4 9173.01,13003Z" style="fill:white;stroke:rgb(53,163,0);stroke-width:12.5px;"/>
            </g>
            <g transform="matrix(0.846571,0.532276,-0.532276,0.846571,8042.4,-19589.7)">
                <path d="M9179.69,12993.3L9183.49,13023.8C9189.97,13033.3 9204.43,13034 9225.11,13027.8L9219.6,12996.4L9179.69,12993.3Z" style="fill:none;stroke:rgb(53,163,0);stroke-width:12.5px;"/>
            </g>
            <g transform="matrix(-0.811596,0,0,0.811596,16976.7,-14223.2)">
                <circle cx="9545.39" cy="13045.5" r="29.091" style="fill:rgb(53,163,0);"/>
            </g>
            <g transform="matrix(0.811596,0,0,0.811596,1729.15,-14222.1)">
                <circle cx="9545.39" cy="13045.5" r="29.091" style="fill:rgb(53,163,0);"/>
            </g>
            <g transform="matrix(1,0,0,1,-55.9401,-16588.6)">
                <path d="M9271.17,13006.4L9383.62,12952.3L9432.62,12948.8L9550.43,13008.5L9517.76,13021L9433.32,12992.5L9384.75,12992.5L9296.63,13013.6L9271.17,13006.4Z" style="fill:white;stroke:rgb(53,163,0);stroke-width:12.5px;"/>
            </g>
            <g transform="matrix(0.730142,0,0,0.730142,2483.15,-13062.6)">
                <path d="M9371.8,12871.7L9371.8,12927.3C9395.12,12942.4 9418.44,12942.7 9441.75,12927.3L9441.75,12864.2L9371.8,12871.7Z" style="fill:white;stroke:rgb(53,163,0);stroke-width:17.12px;"/>
            </g>
            <g transform="matrix(1,0,0,1,-55.9401,-16588.6)">
                <path d="M9356.77,12723.7C9356.77,12723.7 9386.58,12420 9400.32,12280.1C9404.26,12239.8 9435.97,12207.9 9476.18,12203.7C9476.18,12203.7 9476.18,12203.7 9476.18,12203.7C9476.18,12203.7 9539.04,12210.3 9582.07,12214.8C9607.86,12217.5 9632.47,12227 9653.34,12242.4C9653.34,12242.4 9653.34,12242.4 9653.34,12242.4C9673.13,12257 9684.08,12280.7 9682.37,12305.3C9676.38,12391.4 9661.99,12598.5 9653.5,12720.6C9649.59,12776.9 9609.53,12824 9554.65,12837C9554.65,12837 9554.65,12837 9554.65,12837L9356.77,12723.7Z" style="fill:none;stroke:rgb(53,163,0);stroke-width:12.5px;"/>
            </g>
            <g transform="matrix(1.07859,0,0,1.07241,-779.792,-17517)">
                <path d="M9239.52,12855.2C9268.53,12862.3 9323.21,12869.5 9379.95,12866.6C9436.69,12863.7 9552.46,12831 9552.46,12831C9552.46,12831 9559.88,12750.8 9523.2,12743.3C9486.51,12735.9 9325.47,12714 9325.47,12714L9108.82,12735.1L9053.44,12749.4L9048.93,12805C9048.93,12805 9206.41,12847.1 9239.52,12855.2Z" style="fill:white;stroke:rgb(53,163,0);stroke-width:11.62px;"/>
            </g>
            <g transform="matrix(1,0,0,1,-55.9401,-16588.6)">
                <path d="M9358.57,12805.2C9383.5,12804.8 9464.74,12786.7 9492.25,12776.8" style="fill:none;stroke:rgb(53,163,0);stroke-width:6.25px;"/>
            </g>
            <g transform="matrix(1,0,0,1,-1425.19,-17009.4)">
                <path d="M10559.7,13067C10531,13081.9 10419,13079.9 10361.7,13138.3C10357.2,13142.9 10318.5,13315.2 10318.5,13315.2L10356.9,13331.9C10356.9,13331.9 10388.6,13254.2 10421.3,13185.7C10428.8,13170 10557.1,13141.8 10557.1,13141.8" style="fill:white;stroke:rgb(53,163,0);stroke-width:12.5px;"/>
            </g>
            <g transform="matrix(1,0,0,1,-1425.19,-17009.4)">
                <path d="M10845.7,13073.6C10845.7,13073.6 10859.4,13109.7 10824.5,13164.7C10789.6,13219.8 10600.1,13218.1 10600.1,13218.1C10559.3,13222.9 10587.3,13375.9 10593.9,13400.8C10600.6,13425.6 10551.3,13423.9 10541.6,13408.4C10531.8,13393 10485.3,13240.7 10485.3,13240.7C10485.3,13240.7 10450.2,13196.7 10562.1,13125.9" style="fill:white;stroke:rgb(53,163,0);stroke-width:12.5px;"/>
            </g>
            <g transform="matrix(0.972435,0.233173,-0.233173,0.972435,1727.09,-19163.7)">
                <path d="M10690.7,12749.7C10669.9,12760.1 10635.1,12804.7 10619.1,12809.4C10575.6,12822.4 10640.9,12885 10657.4,12876.5C10657.4,12876.5 10711.3,12843.4 10713,12818.5" style="fill:white;stroke:rgb(53,163,0);stroke-width:12.5px;"/>
            </g>
            <g transform="matrix(0.455464,-0.253835,0.486814,0.873506,-2023.77,-12718)">
                <ellipse cx="10630.3" cy="12850.1" rx="10.385" ry="26.238" style="fill:rgb(53,163,0);"/>
            </g>
            <g transform="matrix(1,0,0,1,-2108.09,-17058.7)">
                <path d="M11375.7,12774.7C11359.3,12762.5 11340.6,12758.6 11321.7,12759.7C11289,12761.4 11258.9,12777.7 11239.5,12804C11220.2,12830.4 11213.7,12864.1 11221.9,12895.7C11237.9,12958.7 11253.6,13048.4 11237.9,13119.8C11380.4,13119.2 11435.8,13230.2 11536.8,13140.1C11523.7,12938.7 11444.5,12825.7 11375.7,12774.7Z" style="fill:white;stroke:rgb(53,163,0);stroke-width:12.5px;"/>
            </g>
            <g transform="matrix(1,0,0,1,-2345.34,-16957.8)">
                <path d="M11476,12535.5C11504.1,12521.2 11525.8,12518.9 11537,12504.6C11548.2,12490.2 11549.3,12426 11549.3,12426L11570.8,12393.4C11570.8,12393.4 11547.9,12362.4 11494.3,12358.4C11508.3,12346.3 11520.5,12334.2 11520.5,12334.2C11480.4,12329.9 11419.7,12354.6 11400.8,12365.3C11405.3,12346.6 11409.3,12339.8 11409.3,12339.8C11382.2,12343.3 11355.4,12378.7 11355.4,12378.7C11328.6,12354 11346,12303.7 11403.1,12275.8C11451.6,12252 11546.9,12263.3 11589.9,12324C11600.8,12310.2 11618.7,12299.2 11618.7,12299.2C11622.2,12314.4 11618.8,12332.9 11618.8,12332.9C11628,12326.6 11640.2,12327.7 11640.2,12327.7L11629.3,12366.4C11647.1,12368.1 11653.3,12380 11653.3,12380L11627.6,12391.3C11632,12402.9 11655.9,12403.3 11653,12474.6C11651,12523.2 11625.1,12545.4 11593.7,12583.6C11594.7,12550.7 11597,12500.9 11597,12500.9C11613.3,12508.3 11646.7,12452.7 11613.5,12433.2C11596.6,12425.2 11586,12445.1 11586,12445.1" style="fill:none;stroke:rgb(53,163,0);stroke-width:12.5px;"/>
            </g>
            <g transform="matrix(1,0,0,1,-2345.34,-16957.8)">
                <path d="M11455.6,12408.3C11478.3,12408.3 11512.6,12413.4 11519.8,12429.2" style="fill:none;stroke:rgb(53,163,0);stroke-width:12.5px;"/>
            </g>
            <g transform="matrix(-0.404434,0.0547986,0.142117,1.04887,11910.3,-18187.9)">
                <path d="M11455.6,12408.3C11478.3,12408.3 11512.6,12413.4 11519.8,12429.2" style="fill:none;stroke:rgb(53,163,0);stroke-width:15.58px;"/>
            </g>
            <g transform="matrix(1,0,0,1,-2345.34,-16957.8)">
                <path d="M11388.9,12558.6L11400.6,12582.7L11417.5,12572.3L11440.5,12585.5L11457.8,12565.1" style="fill:none;stroke:rgb(53,163,0);stroke-width:12.5px;"/>
            </g>
            <g transform="matrix(1.03749,0,0,1.0816,-2775.94,-17979.1)">
                <path d="M11402.2,12515.3C11381,12525.9 11365.3,12533.4 11362.1,12565.8C11381.9,12552.9 11407.7,12558.6 11418.3,12537.7C11432.1,12558.6 11458.1,12552.8 11485.4,12568C11492.2,12531.9 11442.1,12518.6 11442.1,12518.6" style="fill:none;stroke:rgb(53,163,0);stroke-width:11.79px;"/>
            </g>
            <g transform="matrix(1.05063,0,0,1,-2866.26,-16879.2)">
                <path d="M11313.9,12487.2C11316.5,12517.3 11301.7,12558.8 11361.9,12557.9C11422.1,12557.1 11530,12565.1 11530,12498.1" style="fill:none;stroke:rgb(53,163,0);stroke-width:12.19px;stroke-miterlimit:1.5;"/>
            </g>
            <g transform="matrix(1.81702,0,0,1.3406,-11711.7,-21185.3)">
                <ellipse cx="11471.1" cy="12435.5" rx="7.018" ry="9.46" style="fill:rgb(53,163,0);"/>
            </g>
            <g transform="matrix(1.26553,0,0,1.09082,-5476.14,-18078.9)">
                <ellipse cx="11471.1" cy="12435.5" rx="7.018" ry="9.46" style="fill:rgb(53,163,0);"/>
            </g>
            <g transform="matrix(1.14838,0,0,1.07231,-4031.3,-17864.4)">
                <path d="M11400.1,12422.7C11407.1,12437.3 11412.4,12457.1 11397.8,12466.4C11378.6,12478.6 11355.7,12520.1 11407.3,12515.5" style="fill:none;stroke:rgb(53,163,0);stroke-width:11.25px;stroke-miterlimit:1.5;"/>
            </g>
            <g transform="matrix(1,0,0,1,-2173.55,-17094.3)">
                <path d="M11192.3,12677.1C11183.3,12599.5 11198.3,12582 11184.3,12512.4" style="fill:none;stroke:rgb(53,163,0);stroke-width:12.5px;"/>
            </g>
            <g transform="matrix(1,0,0,1,-2173.55,-17094.3)">
                <path d="M11315.9,12775.8L11334.8,12832.8C11357,12846 11372.4,12843.2 11379.1,12820.3L11361,12771.9L11315.9,12775.8Z" style="fill:white;stroke:rgb(53,163,0);stroke-width:12.5px;"/>
            </g>
            <g transform="matrix(0.753296,0.289691,-0.276966,0.720208,4130.22,-16876.8)">
                <path d="M11432.1,12584.6L11426.8,12595.4C11426.8,12595.4 11442.1,12595.7 11439.3,12607.6" style="fill:none;stroke:rgb(53,163,0);stroke-width:7.92px;"/>
            </g>
            <g transform="matrix(1,0,0,1,-1425.19,-17009.4)">
                <path d="M10664.4,12770.3C10643.6,12780.7 10635.1,12804.7 10619.1,12809.4C10575.6,12822.4 10640.9,12885 10657.4,12876.5C10657.4,12876.5 10711.3,12843.4 10713,12818.5" style="fill:white;stroke:rgb(53,163,0);stroke-width:12.5px;"/>
            </g>
            <g transform="matrix(0.383722,-0.35304,0.677073,0.735916,-3569.69,-9866.75)">
                <ellipse cx="10630.3" cy="12850.1" rx="10.385" ry="26.238" style="fill:rgb(53,163,0);"/>
            </g>
            <g transform="matrix(0.831036,0.0339257,-0.0307158,0.752406,628.045,-14218.9)">
                <path d="M10624.1,12831.8C10624.1,12831.8 10584.9,12860.2 10556.8,12880.5C10538.8,12893.5 10517.6,12899.8 10496.1,12898.6C10452.3,12896.3 10377.6,12892.2 10353.5,12890.8C10348.4,12890.6 10343.2,12891.2 10338.3,12892.6C10338.3,12892.6 10338.3,12892.6 10338.3,12892.6C10310.9,12900.7 10287.5,12920.2 10272.9,12947C10262.6,12965.9 10252.7,12984.1 10252.7,12984.1C10257.3,12997 10264.3,12998.6 10272.8,12993.6C10272.8,12993.6 10289,12973.9 10298.9,12961.8C10303.7,12956 10310.6,12953.1 10317.7,12953.9C10317.7,12953.9 10317.7,12953.9 10317.7,12953.9C10317.7,12953.9 10327.2,12959.1 10334.3,12963.1C10339.5,12966 10345.2,12967.8 10351,12968.4C10354.1,12968.8 10357.6,12969.2 10360.8,12969.5C10366.5,12970.1 10371.8,12966.1 10373.3,12959.9C10373.3,12959.9 10373.3,12959.9 10373.3,12959.9C10377.8,12941 10393.6,12928.1 10411.3,12928.9C10434.1,12929.8 10465.9,12931.1 10491.9,12932.2C10521.9,12933.5 10551.4,12923.8 10576,12904.8C10605.3,12882.1 10640.9,12854.4 10640.9,12854.4C10638.7,12846.9 10632.1,12835.6 10624.1,12831.8Z" style="fill:white;stroke:rgb(53,163,0);stroke-width:15.76px;"/>
            </g>
            <g transform="matrix(1,0,0,1,-1424.47,-17008.9)">
                <path d="M10625.1,12837.7C10625.1,12837.7 10588.1,12865.4 10561.2,12885.5C10543.5,12898.7 10521.9,12905.5 10499.8,12904.6C10445.9,12902.4 10346.7,12898.4 10346.7,12898.4C10346.7,12898.4 10345.5,12898.5 10343.4,12898.8C10313.4,12902.9 10287.1,12921 10272.6,12947.6C10262.4,12966.3 10252.7,12984.1 10252.7,12984.1C10257.3,12997 10264.3,12998.6 10272.8,12993.6L10298.6,12956.2C10298.6,12956.2 10298.7,12956.4 10299,12956.7C10304.9,12963.2 10312.1,12968.5 10320.2,12972.2C10324.1,12974 10328.5,12976 10332.6,12977.8C10340.8,12981.6 10350.2,12981.3 10358.2,12977.2C10359.6,12976.4 10360.9,12975.7 10362.2,12975.1C10367.6,12972.2 10371.6,12967.2 10373,12961.2C10373,12961.2 10373,12961.2 10373,12961.2C10377.7,12941.7 10395.5,12928.2 10415.6,12929C10441.1,12930.1 10475.6,12931.5 10501.6,12932.6C10525.2,12933.6 10548.4,12926.2 10567,12911.7C10597.4,12888.1 10640.9,12854.4 10640.9,12854.4C10638.7,12846.9 10633.1,12841.5 10625.1,12837.7Z" style="fill:white;stroke:rgb(53,163,0);stroke-width:12.5px;"/>
            </g>
            <g transform="matrix(1,0,0,1,-55.9401,-16588.6)">
                <path d="M9616.44,12273.6L9577.23,12695" style="fill:none;stroke:rgb(53,163,0);stroke-width:6.25px;"/>
            </g>
            <g transform="matrix(1,0,0,1,-55.9401,-16588.6)">
                <path d="M9371.8,12871.7L9371.8,12927.3C9395.12,12942.4 9418.44,12942.7 9441.75,12927.3L9441.75,12864.2L9371.8,12871.7Z" style="fill:white;stroke:rgb(53,163,0);stroke-width:12.5px;"/>
            </g>
            <g transform="matrix(-0.797876,0.205532,0.217916,0.845948,14020.1,-16539.7)">
                <path d="M9433.53,12936L9529.36,12917.6L9533.37,12933.7L9462.06,12972.2L9422.84,12963.5L9417.88,12943.1L9433.53,12936Z" style="fill:rgb(53,163,0);"/>
            </g>
            <g transform="matrix(0.797876,0.205532,-0.217916,0.845948,4685.2,-16539.7)">
                <path d="M9433.53,12936L9529.36,12917.6L9533.37,12933.7L9462.06,12972.2L9422.84,12963.5L9417.88,12943.1L9433.53,12936Z" style="fill:rgb(53,163,0);"/>
            </g>
            <g transform="matrix(1,0,0,1,-57.3804,-16608.6)">
                <circle cx="9545.39" cy="13045.5" r="29.091" style="fill:white;stroke:rgb(53,163,0);stroke-width:12.5px;"/>
            </g>
            <g transform="matrix(1,0,0,1,-333.513,-16608.6)">
                <circle cx="9545.39" cy="13045.5" r="29.091" style="fill:white;stroke:rgb(53,163,0);stroke-width:12.5px;"/>
            </g>
            <g transform="matrix(1,0,0,1,-49.9144,-16568.2)">
                <path d="M9173.01,13003L9147.22,12998.5C9147.22,12998.5 9086.48,13043.2 9080.18,13061.5C9073.88,13079.9 9109.42,13082.7 9165.58,13070.7C9221.75,13058.6 9244.1,13038.5 9244.1,13038.5C9244.1,13038.5 9249.24,13008.7 9228.61,13007.6C9207.97,13006.5 9188.49,13025.4 9173.01,13003Z" style="fill:white;stroke:rgb(53,163,0);stroke-width:12.5px;"/>
            </g>
            <g transform="matrix(1,0,0,1,-55.9401,-16588.6)">
                <path d="M9179.69,12993.3L9183.49,13023.8C9189.97,13033.3 9204.43,13034 9225.11,13027.8L9219.6,12996.4L9179.69,12993.3Z" style="fill:none;stroke:rgb(53,163,0);stroke-width:12.5px;"/>
            </g>
            <g transform="matrix(1,0,0,1,-6844.49,-9676.69)">
                <path d="M15978.3,5717.11C16025.9,5718.81 16103.6,5747.23 16135.4,5761.55C16167.2,5775.87 16214.6,5788.75 16270.8,5744.02" style="fill:none;stroke:rgb(53,163,0);stroke-width:4.8px;stroke-dasharray:7.2,14.4,0,0;"/>
            </g>
        </g>
        <g transform="matrix(0.208333,0,0,0.208333,-2908.12,-945.055)">
            <path d="M16125.8,5786.62C16115.3,5810.12 16132.5,5837.63 16146.2,5841.64" style="fill:none;stroke:rgb(53,163,0);stroke-width:6.25px;"/>
        </g>
        <g transform="matrix(0.208333,0,0,0.208333,-2905.39,-945.727)">
            <path d="M16125.8,5786.62C16115.3,5810.12 16132.5,5837.63 16146.2,5841.64" style="fill:none;stroke:rgb(53,163,0);stroke-width:6.25px;"/>
        </g>
        <g transform="matrix(1,0,0,1,28.653,-9.64658)">
            <path d="M392.423,191.174C392.423,191.174 392.262,192.4 392.1,193.633C391.915,195.045 392.852,196.361 394.247,196.649C395.956,197.001 398.22,197.468 399.934,197.821C401.467,198.137 403.047,197.563 404.02,196.336C404.712,195.464 405.527,194.437 406.242,193.535C407.325,192.17 407.426,190.269 406.495,188.796C405.56,187.318 404.55,185.721 404.55,185.721" style="fill:none;stroke:rgb(53,163,0);stroke-width:1px;stroke-linejoin:round;stroke-miterlimit:1.5;stroke-dasharray:1.5,3,0,0;"/>
        </g>
    </g>
</svg>
