<?xml version="1.0" encoding="UTF-8" standalone="no"?>
<!DOCTYPE svg PUBLIC "-//W3C//DTD SVG 1.1//EN" "http://www.w3.org/Graphics/SVG/1.1/DTD/svg11.dtd">
<svg width="100%" height="100%" viewBox="0 0 800 800" version="1.1" xmlns="http://www.w3.org/2000/svg" xmlns:xlink="http://www.w3.org/1999/xlink" xml:space="preserve" xmlns:serif="http://www.serif.com/" style="fill-rule:evenodd;clip-rule:evenodd;stroke-linecap:round;stroke-miterlimit:5;">
    <g transform="matrix(1,0,0,1,-66.0453,-28.726)">
        <g transform="matrix(1,0,0,1,-311.637,9.90006)">
            <g transform="matrix(-0.176039,0.111413,0.111413,0.176039,689.551,-3055.27)">
                <path d="M9173.01,13003L9147.22,12998.5C9147.22,12998.5 9086.48,13043.2 9080.18,13061.5C9073.88,13079.9 9109.42,13082.7 9165.58,13070.7C9221.75,13058.6 9244.1,13038.5 9244.1,13038.5C9244.1,13038.5 9249.24,13008.7 9228.61,13007.6C9207.97,13006.5 9188.49,13025.4 9173.01,13003Z" style="fill:white;stroke:rgb(53,163,0);stroke-width:12.5px;"/>
            </g>
            <path d="M513.355,268.247C516.138,268.368 523.292,267.366 530.772,264.745C536.331,262.798 542.06,259.952 546.339,256.042C546.742,255.666 546.764,255.032 546.387,254.629C546.01,254.226 545.377,254.204 544.973,254.581C540.956,258.421 535.512,261.251 530.225,263.238C523.019,265.947 516.099,267.097 513.394,267.04C513.061,267.03 512.782,267.291 512.771,267.624C512.76,267.957 513.022,268.236 513.355,268.247Z" style="fill:rgb(53,163,0);"/>
            <g transform="matrix(-0.176039,0.111413,0.111413,0.176039,688.345,-3059.52)">
                <path d="M9179.69,12993.3L9183.49,13023.8C9189.97,13033.3 9204.43,13034 9225.11,13027.8L9219.6,12996.4L9179.69,12993.3Z" style="fill:none;stroke:rgb(53,163,0);stroke-width:12.5px;"/>
            </g>
            <g transform="matrix(-0.204653,-0.0389844,-0.0389844,0.204653,3136.99,-2071.1)">
                <path d="M10559.7,13067C10531,13081.9 10419,13079.9 10361.7,13138.3C10357.2,13142.9 10245.8,13296.9 10245.8,13296.9C10247.8,13321.9 10262.4,13332.3 10289.6,13328.2C10289.6,13328.2 10362.9,13234 10421.3,13185.7C10434.7,13174.7 10557.4,13173.8 10557.4,13173.8" style="fill:rgb(53,163,0);"/>
            </g>
            <g transform="matrix(-0.982336,-0.187125,-0.187125,0.982336,779.004,-3.34427)">
                <path d="M264.879,255.467L276.722,242.247L306.814,252.694L302.033,265.106L271.572,267.188L264.879,255.467Z" style="fill:rgb(53,163,0);"/>
            </g>
            <g transform="matrix(-0.204653,-0.0389844,-0.0389844,0.204653,3136.99,-2071.1)">
                <path d="M10845.7,13073.6C10845.7,13073.6 10859.4,13109.7 10824.5,13164.7C10789.6,13219.8 10607.8,13224 10607.8,13224C10571.7,13241.1 10646.7,13317.3 10668,13347C10683,13367.9 10646.8,13387.2 10632.2,13376.2C10613.8,13362.2 10499.4,13242.2 10499.4,13242.2C10499.4,13242.2 10459.1,13194.1 10562.1,13125.9" style="fill:rgb(53,163,0);"/>
            </g>
            <g transform="matrix(-0.208102,0.00980985,0.00980985,0.208102,2575.85,-2634.87)">
                <path d="M10690.7,12749.7C10669.9,12760.1 10635.1,12804.7 10619.1,12809.4C10575.6,12822.4 10640.9,12885 10657.4,12876.5C10657.4,12876.5 10711.3,12843.4 10713,12818.5" style="fill:white;stroke:rgb(53,163,0);stroke-width:12.5px;"/>
            </g>
            <g transform="matrix(-0.0833167,-0.0697041,-0.133681,0.159788,3092.19,-1169.5)">
                <ellipse cx="10630.3" cy="12850.1" rx="10.385" ry="26.238" style="fill:rgb(53,163,0);"/>
            </g>
            <g transform="matrix(-0.204653,-0.0389844,-0.0389844,0.204653,3278.67,-2054.56)">
                <path d="M11375.7,12774.7C11359.3,12762.5 11340.6,12758.6 11321.7,12759.7C11289,12761.4 11258.9,12777.7 11239.5,12804C11220.2,12830.4 11213.7,12864.1 11221.9,12895.7C11237.9,12958.7 11253.6,13048.4 11237.9,13119.8C11380.4,13119.2 11435.8,13230.2 11536.8,13140.1C11523.7,12938.7 11444.5,12825.7 11375.7,12774.7Z" style="fill:white;stroke:rgb(53,163,0);stroke-width:12.5px;"/>
            </g>
            <g transform="matrix(-0.204653,-0.0389844,-0.0389844,0.204653,3956.35,-359.064)">
                <path d="M16125.8,5786.62C16115.3,5810.12 16132.5,5837.63 16146.2,5841.64" style="fill:none;stroke:rgb(53,163,0);stroke-width:6.25px;"/>
            </g>
            <g transform="matrix(-0.204653,-0.0389844,-0.0389844,0.204653,3953.79,-360.236)">
                <path d="M16125.8,5786.62C16115.3,5810.12 16132.5,5837.63 16146.2,5841.64" style="fill:none;stroke:rgb(53,163,0);stroke-width:6.25px;"/>
            </g>
            <g transform="matrix(-0.982336,-0.187125,-0.187125,0.982336,896.932,9.29991)">
                <path d="M392.423,191.174C392.423,191.174 392.262,192.4 392.1,193.633C391.915,195.045 392.852,196.361 394.247,196.649C395.956,197.001 398.22,197.468 399.934,197.821C401.467,198.137 403.047,197.563 404.02,196.336C404.712,195.464 405.527,194.437 406.242,193.535C407.325,192.17 407.426,190.269 406.495,188.796C405.56,187.318 404.55,185.721 404.55,185.721" style="fill:none;stroke:rgb(53,163,0);stroke-width:1px;stroke-linejoin:round;stroke-miterlimit:1.5;stroke-dasharray:1.5,3,0,0;"/>
            </g>
            <g transform="matrix(-0.204653,-0.0389844,-0.0389844,0.204653,3293.45,-2059.29)">
                <path d="M11316.5,12784.2L11334.8,12832.8C11357,12846 11372.4,12843.2 11379.1,12820.3L11361.6,12780.3L11316.5,12784.2Z" style="fill:white;stroke:rgb(53,163,0);stroke-width:12.5px;"/>
            </g>
            <g transform="matrix(-0.184162,-0.0273502,-0.0246752,0.16615,2764.75,-1700.65)">
                <path d="M10624.1,12831.8C10624.1,12831.8 10551.7,12879.2 10521.1,12899.2C10512.5,12904.9 10502.4,12907.3 10492.3,12906.2C10444.9,12900.7 10303.8,12884.3 10294.1,12883.1C10293.7,12883.1 10293.4,12883.1 10293,12883C10293,12883 10293,12883 10293,12883C10272.3,12880 10251.2,12884.2 10232.6,12895C10216.3,12904.5 10196.5,12916.1 10183.2,12923.8C10179,12926.3 10176.2,12930.8 10175.6,12936C10175.1,12941.1 10176.8,12946.3 10180.4,12949.7C10189.6,12958.5 10202.4,12965.8 10214.7,12964.7C10214.7,12964.7 10241.2,12956.7 10255.9,12952.3C10265.6,12949.4 10275.9,12949.7 10285.4,12953.3C10290.3,12955.2 10295.1,12957.9 10298.6,12962L10283,12991.6C10289.5,12997.5 10301.7,13007.8 10304,13001.2L10347.4,12954.7C10347.4,12954.7 10353.1,12948.1 10358,12942.3C10362.5,12937.1 10368.8,12934.2 10375.3,12934.6C10400.2,12935.8 10464.5,12939 10497.1,12940.7C10509.9,12941.3 10522.6,12937.9 10533.8,12930.8C10568.2,12908.9 10642.9,12861.3 10642.9,12861.3C10640.6,12853.7 10632.1,12835.6 10624.1,12831.8Z" style="fill:white;stroke:rgb(53,163,0);stroke-width:14.69px;"/>
            </g>
            <g transform="matrix(-0.20423,0.0411468,0.0411468,0.20423,1775.23,-2779.31)">
                <path d="M9173.01,13003L9147.22,12998.5C9147.22,12998.5 9086.48,13043.2 9080.18,13061.5C9073.88,13079.9 9109.42,13082.7 9165.58,13070.7C9221.75,13058.6 9244.1,13038.5 9244.1,13038.5C9244.1,13038.5 9249.24,13008.7 9228.61,13007.6C9207.97,13006.5 9188.49,13025.4 9173.01,13003Z" style="fill:white;stroke:rgb(53,163,0);stroke-width:12.5px;"/>
            </g>
            <path d="M458.818,263.207C457.291,260.14 453.704,258.637 449.529,258.051C443.999,257.275 437.443,258.091 433.73,258.624C433.185,258.711 432.813,259.224 432.9,259.769C432.987,260.314 433.5,260.686 434.045,260.599C437.627,259.972 443.957,258.975 449.34,259.563C453.047,259.969 456.314,261.092 457.746,263.761C457.899,264.057 458.264,264.173 458.559,264.02C458.855,263.867 458.971,263.503 458.818,263.207Z" style="fill:rgb(53,163,0);"/>
            <g transform="matrix(-0.204653,-0.0389844,-0.0389844,0.204653,3960.21,-359.163)">
                <path d="M15978.3,5717.11C16025.9,5718.81 16103.6,5747.23 16135.4,5761.55C16167.2,5775.87 16214.6,5788.75 16270.8,5744.02" style="fill:none;stroke:rgb(53,163,0);stroke-width:4.8px;stroke-dasharray:7.2,14.4,0,0;"/>
            </g>
            <g transform="matrix(0.161372,0.131765,0.131765,-0.161372,-2735.14,1035.3)">
                <path d="M9358.52,12802.3C9371.12,12801.9 9398.16,12796.8 9425.25,12790.5C9451.28,12784.4 9477.33,12777.3 9490.62,12772.3C9493.12,12771.4 9495.87,12772.7 9496.76,12775.2C9497.66,12777.7 9496.37,12780.4 9493.87,12781.3C9480.21,12786 9453.53,12792.6 9426.89,12798C9399.14,12803.6 9371.45,12808.1 9358.62,12808.1C9357.02,12808.2 9355.7,12806.9 9355.67,12805.3C9355.64,12803.7 9356.92,12802.4 9358.52,12802.3Z" style="fill:white;"/>
            </g>
        </g>
        <g transform="matrix(-0.190433,-0.0844879,-0.0844879,0.190433,1536.12,1717.97)">
            <g>
                <g transform="matrix(4.67432,1.09119,-1.09119,4.67432,6529.21,-5786.34)">
                    <path d="M560.293,123.102L574.395,174.09L579.911,177.165L613.031,166.813L619.18,158.222L626.415,139.05L624.425,128.107L612.126,112.643L587.039,101.477L560.293,123.102Z" style="fill:white;"/>
                </g>
                <g transform="matrix(1,0,0,1,-2345.34,-16957.8)">
                    <path d="M11476,12535.5C11504.1,12521.2 11525.8,12518.9 11537,12504.6C11548.2,12490.2 11549.3,12426 11549.3,12426L11570.8,12393.4C11570.8,12393.4 11547.9,12362.4 11494.3,12358.4C11508.3,12346.3 11520.5,12334.2 11520.5,12334.2C11480.4,12329.9 11419.7,12354.6 11400.8,12365.3C11405.3,12346.6 11409.3,12339.8 11409.3,12339.8C11382.2,12343.3 11355.4,12378.7 11355.4,12378.7C11328.6,12354 11346,12303.7 11403.1,12275.8C11451.6,12252 11546.9,12263.3 11589.9,12324C11600.8,12310.2 11618.7,12299.2 11618.7,12299.2C11622.2,12314.4 11618.8,12332.9 11618.8,12332.9C11628,12326.6 11640.2,12327.7 11640.2,12327.7L11629.3,12366.4C11647.1,12368.1 11653.3,12380 11653.3,12380L11627.6,12391.3C11632,12402.9 11655.9,12403.3 11653,12474.6C11651,12523.2 11625.1,12545.4 11593.7,12583.6C11594.7,12550.7 11597,12500.9 11597,12500.9C11613.3,12508.3 11646.7,12452.7 11613.5,12433.2C11596.6,12425.2 11586,12445.1 11586,12445.1" style="fill:none;stroke:rgb(53,163,0);stroke-width:12.5px;"/>
                </g>
                <g transform="matrix(0.962171,-0.272446,0.306756,1.08334,-5728.97,-14850.1)">
                    <path d="M11455.6,12408.3C11479,12387 11513.2,12396.9 11519.8,12429.2" style="fill:none;stroke:rgb(53,163,0);stroke-width:11.74px;"/>
                </g>
                <g transform="matrix(-0.384556,-0.136697,-0.354515,0.997322,17850.4,-15347.1)">
                    <path d="M11455.6,12408.3C11478.3,12408.3 11508.3,12411.8 11515.9,12422.5" style="fill:none;stroke:rgb(53,163,0);stroke-width:15.58px;"/>
                </g>
                <g transform="matrix(1,0,0,1,-2345.34,-16957.8)">
                    <path d="M11388.9,12558.6L11400.6,12582.7L11417.5,12572.3L11440.5,12585.5L11457.8,12565.1" style="fill:none;stroke:rgb(53,163,0);stroke-width:12.5px;"/>
                </g>
                <g transform="matrix(1.03749,0,0,1.0816,-2775.94,-17979.1)">
                    <path d="M11402.2,12515.3C11381,12525.9 11365.3,12533.4 11362.1,12565.8C11381.9,12552.9 11407.7,12558.6 11418.3,12537.7C11432.1,12558.6 11458.1,12552.8 11485.4,12568C11492.2,12531.9 11442.1,12518.6 11442.1,12518.6" style="fill:none;stroke:rgb(53,163,0);stroke-width:11.79px;"/>
                </g>
                <g transform="matrix(1.05063,0,0,1,-2866.26,-16879.2)">
                    <path d="M11313.9,12487.2C11316.5,12517.3 11301.7,12558.8 11361.9,12557.9C11422.1,12557.1 11530,12565.1 11530,12498.1" style="fill:none;stroke:rgb(53,163,0);stroke-width:12.19px;stroke-miterlimit:1.5;"/>
                </g>
                <g transform="matrix(1.81702,0,0,1.3406,-11711.7,-21185.3)">
                    <ellipse cx="11471.1" cy="12435.5" rx="7.018" ry="9.46" style="fill:rgb(53,163,0);"/>
                </g>
                <g transform="matrix(1.26553,0,0,1.09082,-5476.14,-18078.9)">
                    <ellipse cx="11471.1" cy="12435.5" rx="7.018" ry="9.46" style="fill:rgb(53,163,0);"/>
                </g>
                <g transform="matrix(1.14838,0,0,1.07231,-4031.3,-17864.4)">
                    <path d="M11400.1,12422.7C11407.1,12437.3 11412.4,12457.1 11397.8,12466.4C11378.6,12478.6 11355.7,12520.1 11407.3,12515.5" style="fill:none;stroke:rgb(53,163,0);stroke-width:11.25px;stroke-miterlimit:1.5;"/>
                </g>
                <g transform="matrix(1,0,0,1,-2173.55,-17094.3)">
                    <path d="M11192.3,12677.1C11183.3,12599.5 11198.3,12582 11184.3,12512.4" style="fill:none;stroke:rgb(53,163,0);stroke-width:12.5px;"/>
                </g>
                <g transform="matrix(0.753296,0.289691,-0.276966,0.720208,4130.22,-16876.8)">
                    <path d="M11432.1,12584.6L11426.8,12595.4C11426.8,12595.4 11442.1,12595.7 11439.3,12607.6" style="fill:none;stroke:rgb(53,163,0);stroke-width:7.92px;"/>
                </g>
            </g>
        </g>
        <g transform="matrix(1,0,0,1,-315.378,11.1267)">
            <g transform="matrix(-0.999408,-0.0344091,-0.0344091,0.999408,938.779,35.4856)">
                <path d="M473.583,281.012C467.062,287.676 448.551,287.958 440.118,283.465C429.646,277.885 443.968,274.248 449.474,269.531C454.98,264.815 515.445,206.256 522.597,198.268C526.77,193.607 532.652,173.778 541.453,183.551C550.821,193.954 548.192,208.576 542.857,214.812L473.583,281.012Z" style="fill:rgb(230,230,230);stroke:rgb(53,163,0);stroke-width:2.6px;stroke-linejoin:round;stroke-miterlimit:1.5;"/>
            </g>
            <g>
                <g>
                    <g transform="matrix(0.997441,0.0714987,-0.0714987,0.997441,57.0308,-58.5298)">
                        <path d="M375.397,255.875C375.397,255.875 373.92,257.7 371.564,260.222C368.712,263.274 376.428,271.849 380.634,268.215C381.808,267.202 385.748,263.175 385.748,263.175C388.682,260.668 381.072,250.154 375.397,255.875Z" style="fill:white;stroke:rgb(53,163,0);stroke-width:2.6px;stroke-linejoin:round;stroke-miterlimit:1.5;"/>
                    </g>
                    <g transform="matrix(0.550654,-0.458348,0.54477,0.65448,65.2751,233.457)">
                        <ellipse cx="384.812" cy="259.919" rx="3.419" ry="5.253" style="fill:white;stroke:rgb(53,163,0);stroke-width:1.65px;stroke-linejoin:round;stroke-miterlimit:1.5;"/>
                    </g>
                </g>
                <g>
                    <g transform="matrix(0.997441,0.0714987,-0.0714987,0.997441,40.4026,-44.195)">
                        <path d="M375.397,255.875C375.397,255.875 373.89,257.673 371.564,260.222C368.716,263.341 376.165,272.075 380.634,268.215C381.808,267.202 385.748,263.175 385.748,263.175C388.682,260.668 381.072,250.154 375.397,255.875Z" style="fill:white;stroke:rgb(53,163,0);stroke-width:2.6px;stroke-linejoin:round;stroke-miterlimit:1.5;"/>
                    </g>
                    <g transform="matrix(0.580546,-0.483229,0.54477,0.65448,37.1526,257.378)">
                        <ellipse cx="384.812" cy="259.919" rx="3.419" ry="5.253" style="fill:white;stroke:rgb(53,163,0);stroke-width:1.62px;stroke-linejoin:round;stroke-miterlimit:1.5;"/>
                    </g>
                </g>
                <path d="M401.423,240.351C401.404,241.372 401.899,242.049 403.109,242.25L406.928,239.903L410.918,243.061L413.734,241.29L410.875,237.45L412.198,235.103L409.786,232.376L401.423,240.351Z" style="fill:white;stroke:rgb(53,163,0);stroke-width:1.3px;stroke-linejoin:round;stroke-miterlimit:1.5;"/>
            </g>
            <g transform="matrix(1,0,0,1,50.5416,49.2151)">
                <g>
                    <g transform="matrix(0.997441,0.0714987,-0.0714987,0.997441,57.0308,-58.5298)">
                        <path d="M375.397,255.875C375.397,255.875 373.92,257.7 371.564,260.222C368.712,263.274 376.428,271.849 380.634,268.215C381.808,267.202 385.748,263.175 385.748,263.175C388.682,260.668 381.072,250.154 375.397,255.875Z" style="fill:white;stroke:rgb(53,163,0);stroke-width:2.6px;stroke-linejoin:round;stroke-miterlimit:1.5;"/>
                    </g>
                    <g transform="matrix(0.550654,-0.458348,0.54477,0.65448,65.2751,233.457)">
                        <ellipse cx="384.812" cy="259.919" rx="3.419" ry="5.253" style="fill:white;stroke:rgb(53,163,0);stroke-width:1.65px;stroke-linejoin:round;stroke-miterlimit:1.5;"/>
                    </g>
                </g>
                <g>
                    <g transform="matrix(0.997441,0.0714987,-0.0714987,0.997441,40.4026,-44.195)">
                        <path d="M375.397,255.875C375.397,255.875 373.89,257.673 371.564,260.222C368.716,263.341 376.165,272.075 380.634,268.215C381.808,267.202 385.748,263.175 385.748,263.175C388.682,260.668 381.072,250.154 375.397,255.875Z" style="fill:white;stroke:rgb(53,163,0);stroke-width:2.6px;stroke-linejoin:round;stroke-miterlimit:1.5;"/>
                    </g>
                    <g transform="matrix(0.580546,-0.483229,0.54477,0.65448,37.1526,257.378)">
                        <ellipse cx="384.812" cy="259.919" rx="3.419" ry="5.253" style="fill:white;stroke:rgb(53,163,0);stroke-width:1.62px;stroke-linejoin:round;stroke-miterlimit:1.5;"/>
                    </g>
                </g>
                <path d="M401.423,240.351C401.404,241.372 401.899,242.049 403.109,242.25L406.715,239.717L412.198,235.103L409.786,232.376L407.59,234.47L403.422,231.139L401.777,232.709L404.537,237.382L401.423,240.351Z" style="fill:white;stroke:rgb(53,163,0);stroke-width:1.3px;stroke-linejoin:round;stroke-miterlimit:1.5;"/>
            </g>
        </g>
        <g transform="matrix(1,0,0,1,-311.637,9.90006)">
            <path d="M448.614,121.194C441.966,120.776 435.391,122.338 428.917,126.607C426.109,132.258 428.16,137.164 436.638,141.425L448.381,136.891" style="fill:white;stroke:rgb(53,163,0);stroke-width:2.6px;stroke-linejoin:round;stroke-miterlimit:1.5;"/>
        </g>
        <g transform="matrix(1.37914,-0.944856,0.526881,0.769052,-549.446,452.231)">
            <ellipse cx="436.239" cy="134.177" rx="1.595" ry="6.153" style="fill:rgb(53,163,0);"/>
        </g>
        <g transform="matrix(1,0,0,1,-311.637,9.90006)">
            <path d="M432.748,131.282C432.748,131.282 413.008,141.141 404.617,145.332C402.246,146.517 400.441,148.592 399.596,151.105C396.212,161.174 387.485,187.144 387.485,187.144C387.485,187.144 385.246,189.483 383.616,191.184C382.52,192.329 381.694,193.705 381.2,195.21C380.789,196.462 380.267,198.051 379.789,199.508C378.956,202.045 379.485,204.833 381.189,206.89C381.905,207.754 382.667,208.674 383.35,209.498C384.688,211.112 386.821,211.834 388.864,211.364C390.377,211.016 392.157,210.606 393.652,210.262C394.418,210.085 395.06,209.565 395.391,208.852C395.722,208.139 395.705,207.313 395.345,206.614C394.156,204.307 392.694,201.469 392.694,201.469L395.624,196.911L398.147,201.632L401.403,203.341L400.426,193.249L395.706,186.819C395.706,186.819 403.214,164.206 406.263,155.024C407.074,152.582 408.796,150.546 411.071,149.342C418.898,145.196 436.971,135.624 436.971,135.624" style="fill:rgb(253,255,251);stroke:rgb(53,163,0);stroke-width:2.6px;stroke-linejoin:round;stroke-miterlimit:1.5;"/>
        </g>
        <g transform="matrix(1,0,0,1,-311.637,9.90006)">
            <path d="M553.383,251.182C554.777,254.171 555.303,256.838 555.096,259.208C554.854,261.989 553.582,264.346 551.547,266.321C551.293,266.575 551.293,266.986 551.547,267.24C551.8,267.494 552.212,267.494 552.466,267.24C554.643,264.996 555.961,262.356 556.136,259.283C556.279,256.768 555.659,253.958 554.089,250.84C553.994,250.645 553.759,250.564 553.565,250.658C553.37,250.753 553.288,250.987 553.383,251.182Z" style="fill:rgb(53,163,0);"/>
        </g>
        <g transform="matrix(0.612967,-0.790109,0.790109,0.612967,-282.584,442.627)">
            <path d="M553.383,251.182C554.777,254.171 555.303,256.838 555.096,259.208C554.854,261.989 553.582,264.346 551.547,266.321C551.293,266.575 551.293,266.986 551.547,267.24C551.8,267.494 552.212,267.494 552.466,267.24C554.643,264.996 555.961,262.356 556.136,259.283C556.279,256.768 555.659,253.958 554.089,250.84C553.994,250.645 553.759,250.564 553.565,250.658C553.37,250.753 553.288,250.987 553.383,251.182Z" style="fill:rgb(53,163,0);"/>
        </g>
        <g transform="matrix(0.984903,-0.173106,0.173106,0.984903,-343.922,107.034)">
            <path d="M553.383,251.182C554.777,254.171 555.303,256.838 555.096,259.208C554.854,261.989 553.582,264.346 551.547,266.321C551.293,266.575 551.293,266.986 551.547,267.24C551.8,267.494 552.212,267.494 552.466,267.24C554.643,264.996 555.961,262.356 556.136,259.283C556.279,256.768 555.659,253.958 554.089,250.84C553.994,250.645 553.759,250.564 553.565,250.658C553.37,250.753 553.288,250.987 553.383,251.182Z" style="fill:rgb(53,163,0);"/>
        </g>
        <g transform="matrix(0.46694,-0.884289,0.884289,0.46694,-225.627,527.675)">
            <path d="M553.383,251.182C554.777,254.171 555.303,256.838 555.096,259.208C554.854,261.989 553.582,264.346 551.547,266.321C551.293,266.575 551.293,266.986 551.547,267.24C551.8,267.494 552.212,267.494 552.466,267.24C554.643,264.996 555.961,262.356 556.136,259.283C556.279,256.768 555.659,253.958 554.089,250.84C553.994,250.645 553.759,250.564 553.565,250.658C553.37,250.753 553.288,250.987 553.383,251.182Z" style="fill:rgb(53,163,0);"/>
        </g>
    </g>
</svg>
